<?xml version="1.0" encoding="utf-8"?>
<!-- Generator: Adobe Illustrator 24.0.2, SVG Export Plug-In . SVG Version: 6.00 Build 0)  -->
<svg version="1.1" id="Layer_1" xmlns="http://www.w3.org/2000/svg" xmlns:xlink="http://www.w3.org/1999/xlink" x="0px" y="0px"
	 viewBox="0 0 696.1 250" style="enable-background:new 0 0 696.1 250;" xml:space="preserve">
<style type="text/css">
	.st0{fill:url(#SVGID_1_);}
	.st1{fill:url(#SVGID_2_);}
	.st2{fill:url(#SVGID_3_);}
	.st3{fill:url(#SVGID_4_);}
	.st4{fill:#FFFFFF;}
	.st5{opacity:0.77;}
	.st6{fill:url(#SVGID_5_);}
	.st7{fill:url(#SVGID_6_);}
	.st8{fill:url(#SVGID_7_);}
	.st9{fill:url(#SVGID_8_);}
	.st10{fill:url(#SVGID_9_);}
	.st11{fill:url(#SVGID_10_);}
	.st12{fill:url(#SVGID_11_);}
	.st13{fill:url(#SVGID_12_);}
</style>
<title>okeanos_dark</title>
<g>
	
		<linearGradient id="SVGID_1_" gradientUnits="userSpaceOnUse" x1="110.9377" y1="79.8691" x2="165.1602" y2="173.7852" gradientTransform="matrix(1 0 0 -1 0 252)">
		<stop  offset="0" style="stop-color:#009CED"/>
		<stop  offset="0.5188" style="stop-color:#0084ED"/>
		<stop  offset="0.9406" style="stop-color:#0095ED"/>
	</linearGradient>
	<path class="st0" d="M157.9,78.4c3.5,2.7,6.6,6,9.2,9.5c2.3,3.5,4.5,7.2,6.4,10.9c1.9-1.9,3.3-4.2,4.3-6.7c0.3-0.9,0.6-1.8,0.8-2.7
		c0.3-3.1,0.1-6.2-0.6-9.3c3.5,3.3,6.6,7.1,9,11.2c0.2,0.5,0.4,0.9,0.7,1.5c3.1,6.1,4,11.9,2.6,17.3c-6.8,26.7-19.3,43.1-37.2,49.1
		c-13.9,5.2-21.4,3.4-22.6-5.5c-0.7-1-1.5-1.8-2.5-2.5c-2.2-1.9-5-3.1-7.9-3.3c-7.7-1.8-13.8-5.1-18.2-10.3c-3-5.9-4.7-10.5-5.2-14
		c-0.8-4.6-0.2-9.2,1.8-13.4c0.1-0.1,0.1-0.2,0.2-0.3c4.8-9.8,12.1-15.7,22-17.8c-8.6,5.1-13.7,12.4-15.2,21.9
		c-0.3,1.9-0.3,3.8,0,5.7c0.7,5.3,3.5,11.2,8.2,17.8c-2.2-4.3-3.4-9-3.7-13.8c-0.1-5.9,1.7-11.6,5.1-16.4c4.6-6.4,9.5-10,14.9-10.8
		c5.8-0.8,12.9,1.5,21.4,6.8c-7.5-3.2-14-4.2-19.5-2.8c-5.8,1.3-9.5,5.1-11.1,11.2c-1.9,7.7,0.5,13.4,7.3,17.3
		c2.7,1.5,5.7,2.5,8.9,2.8c-7.7-5.7-9.7-14.7-6-26.8c0.8,11.4,2.9,17.9,6.4,19.2c3.5,1.4,8.5-2.2,15.2-10.6c6-7.7,5.5-16.1-1.4-25.1
		c-2.4-3-5.1-5.7-8.1-8.2l-4.3-3.1C144.3,73,150.7,73.4,157.9,78.4z"/>
	<g id="aj7hIB_2_">
		<g>
			
				<linearGradient id="SVGID_2_" gradientUnits="userSpaceOnUse" x1="130.5" y1="143.3618" x2="180.6498" y2="143.3618" gradientTransform="matrix(1 0 0 -1 0 252)">
				<stop  offset="0.4197" style="stop-color:#00D0ED"/>
				<stop  offset="1" style="stop-color:#00FFED"/>
			</linearGradient>
			<path class="st1" d="M130.5,133.7c9.5,1.6,24.1,11.1,27.7-6.4c-3.7,10.5-22.4,3.8-26.3-6.9c7.2,8.7,13.4,1.4,17.9-4.3
				c10.9-13.5,8.8-20.8-10.8-39.2c11-7,19.6,1.4,24.5,6.4c6.4,6.4,8.8,13.1,12.7,20.9c3.3,6.5,10,15.3-4.5,20.1
				c-2.3,0.7-3.2,4.7-4.9,7C155.9,146.2,147.6,147.1,130.5,133.7z"/>
		</g>
	</g>
	
		<linearGradient id="SVGID_3_" gradientUnits="userSpaceOnUse" x1="57.2582" y1="125.9848" x2="215.5" y2="125.9848" gradientTransform="matrix(1 0 0 -1 0 252)">
		<stop  offset="0.4197" style="stop-color:#00D0ED"/>
		<stop  offset="1" style="stop-color:#00FFED"/>
	</linearGradient>
	<path class="st2" d="M197.9,172.1c-16.9,6.4-32.3,9.9-46.2,10.8c8.2,2.1,22.1,0.5,41.7-4.7c4.6-1.3,9.5-2.7,14.7-4.4
		c-2.8,4.4-6.2,8.4-10.1,12c-8.5,4.3-17.4,7.9-26.5,10.6c-11.9,3.6-24.1,5.9-36.5,6.8c-1.1-0.1-2.3-0.1-3.3-0.1
		c-18.3-1-34.2-7.2-47.6-18.6c-1.4-1.2-2.8-2.5-4.2-3.8c-5.5-5.5-10.1-11.8-13.6-18.7c-5.6-11.2-8.7-24.4-9-39.7
		c-0.5-15,3.5-29.8,11.5-42.6c4.9-8.1,11.5-15,19.3-20.3c5.2-3.4,10.9-6,17-7.7c20.2-6,37.5-2.2,52.2,10.9h-2.1
		c-24-0.8-43.9,4.1-59.6,14.8c-0.1,0.1-0.2,0.1-0.4,0.2C79.6,88.4,72,102,72.1,118.4c0.1,14.8,9.9,29,29.5,42.6
		c5.4,1.9,10.2,5.1,14,9.3c1.7,2,3.4,4,4.9,6.2c1.8,2.6,5.3,4.1,10.4,4.3c6.1,0.4,12.2-1.1,17.5-4.1c6.7-3.6,13.9-6.3,21.3-8.1
		c11.1-2.8,22.5-5.1,34.4-7.1c3.9-0.6,7.7-1.5,11.4-2.8c-1,2.6-2,5.1-3.3,7.5c-3,1.2-6.5,2.6-10.7,4.2
		C200.4,171.1,199.2,171.7,197.9,172.1z"/>
	
		<linearGradient id="SVGID_4_" gradientUnits="userSpaceOnUse" x1="86.0291" y1="192.85" x2="86.0291" y2="51.75" gradientTransform="matrix(1 0 0 -1 0 252)">
		<stop  offset="0" style="stop-color:#009CED"/>
		<stop  offset="0.5188" style="stop-color:#0084ED"/>
		<stop  offset="0.9406" style="stop-color:#0095ED"/>
	</linearGradient>
	<path class="st3" d="M114.8,200.3c-11.4-2.9-21.6-8.3-30.7-16c-1.4-1.2-2.8-2.5-4.2-3.8c-5.5-5.5-10.1-11.8-13.6-18.7
		c-5.6-11.2-8.7-24.4-9-39.7c-0.5-15,3.5-29.8,11.5-42.6c4.9-8.1,11.5-15,19.3-20.3c0,0-23.3,45.8-15.7,63.6l0,0
		c0.5,3.8,1.8,7.6,3.6,11.3C79.9,148.8,83.2,166.2,114.8,200.3z"/>
	<path class="st4" d="M135.6,234.4c-60.4,0-109.4-48.9-109.4-109.3s49-109.4,109.4-109.4S245,64.7,245,125.1
		C244.9,185.5,196,234.4,135.6,234.4L135.6,234.4z M135.6,30.7c-52.1,0-94.4,42.3-94.4,94.4s42.3,94.4,94.4,94.4
		s94.4-42.3,94.4-94.4l0,0C229.9,73,187.7,30.7,135.6,30.7z"/>
	<g id="xMP44R.tif_1_">
		<path class="st4" d="M184.1,61.7c0,0.7-0.1,1.5-0.3,2.2c-0.3,0.9-1,1.7-1.8,2.3s-1.8,0.9-2.7,1.1c-0.6,0.1-1.3,0.1-1.9,0.1
			c-1.1-0.1-2.1-0.4-3-1c-0.5-0.3-1-0.8-1.4-1.3c-0.3-0.5-0.6-1.1-0.7-1.7c-0.1-0.7-0.2-1.4-0.1-2.1c0-0.7,0.2-1.4,0.5-2.1
			c0.3-0.7,0.9-1.3,1.5-1.7c0.7-0.5,1.6-0.8,2.5-1c0.7-0.1,1.4-0.2,2.1-0.1c1.3,0.1,2.5,0.5,3.5,1.2c0.9,0.7,1.6,1.6,1.8,2.8
			C184,60.7,184.1,61.2,184.1,61.7z M173.3,61.7c0,0.5,0,1,0.1,1.5c0.1,0.5,0.3,0.9,0.6,1.3c0.3,0.3,0.6,0.6,1,0.9
			c0.7,0.5,1.5,0.7,2.4,0.8c0.7,0.1,1.4,0,2.1-0.1c0.9-0.2,1.7-0.6,2.3-1.2c0.4-0.4,0.6-0.8,0.8-1.4c0.1-0.5,0.2-0.9,0.2-1.4
			c0-0.7,0-1.3-0.2-2c-0.1-0.5-0.3-0.9-0.7-1.3c-0.4-0.4-0.8-0.7-1.3-1c-0.7-0.3-1.4-0.5-2.1-0.5c-0.6,0-1.3,0-1.9,0.2
			c-0.8,0.2-1.6,0.6-2.2,1.2c-0.4,0.4-0.6,0.8-0.7,1.3C173.4,60.5,173.3,61.1,173.3,61.7L173.3,61.7z"/>
		<path class="st4" d="M181,65.1h-0.1c-0.3,0-0.7,0-1,0h-0.1c-0.4-0.8-0.7-1.6-1.1-2.4c0,0,0-0.1-0.1,0c-0.2,0-0.5,0.1-0.7,0
			c-0.3,0-0.7,0-1,0c-0.1,0-0.1,0-0.1,0.1c0,0.8,0,1.6,0,2.3c0,0.1,0,0.1-0.1,0.1c-0.3,0-0.7,0-1,0c-0.1,0-0.1,0-0.1-0.1
			c0-1.9,0-3.9,0-5.8c0-0.5,0.3-0.9,0.8-1c0.2,0,0.3-0.1,0.5-0.1c0.5,0,0.9,0,1.4,0s1.1,0.1,1.5,0.4c0.5,0.3,0.9,0.8,0.9,1.4
			c0.2,0.8-0.2,1.7-1,2.1c-0.1,0.1-0.1,0.1-0.1,0.2C180.1,63.2,180.5,64.1,181,65.1C180.9,65,181,65.1,181,65.1z M176.8,60.4
			c0,0.4,0,0.7,0,1.1c0,0.1,0,0.1,0.1,0.1c0.4,0,0.8,0,1.2,0c0.3,0,0.5,0,0.8-0.1c0.3,0,0.5-0.2,0.6-0.4s0.2-0.4,0.2-0.6
			c0.1-0.5-0.2-0.9-0.6-1.1c-0.2-0.1-0.5-0.2-0.7-0.2c-0.5,0-1,0-1.4,0c0,0,0,0-0.1,0s-0.1,0-0.1,0.1
			C176.8,59.7,176.8,60,176.8,60.4L176.8,60.4z"/>
	</g>
</g>
<g>
	<g>
		<path class="st4" d="M292.8,127.4c-4.5-2.5-8.2-6.2-10.8-10.6c-2.7-4.8-4-10.2-3.9-15.7c-0.1-5.5,1.3-10.9,3.9-15.7
			c2.5-4.5,6.3-8.2,10.8-10.7c9.5-5.1,20.9-5.1,30.4,0c4.5,2.5,8.2,6.2,10.7,10.7c2.7,4.8,4,10.2,3.9,15.7
			c0.1,5.5-1.2,10.9-3.9,15.7c-2.5,4.5-6.2,8.1-10.7,10.6C313.7,132.5,302.3,132.5,292.8,127.4z M315.8,115.5
			c2.4-1.3,4.3-3.3,5.6-5.7c2.7-5.4,2.8-11.9,0-17.3c-1.3-2.4-3.2-4.4-5.5-5.7c-4.9-2.7-10.8-2.7-15.7,0c-2.3,1.4-4.3,3.3-5.5,5.7
			c-1.4,2.7-2.1,5.6-2,8.6c-0.1,3,0.6,6,2,8.7c1.3,2.4,3.2,4.4,5.6,5.7c2.4,1.3,5.1,2,7.8,2C310.7,117.5,313.4,116.8,315.8,115.5z"
			/>
		<path class="st4" d="M343.4,72.2h14.1v24l19.2-24h16.7l-22.5,28.1l24,29.7h-16.7l-20.7-25.6V130h-14.1V72.2z"/>
		<path class="st4" d="M400.5,72.2H440v12.3h-25.4v10.8h18.6v11.5h-18.6v10.8H440v12.3h-39.5V72.2z"/>
		<path class="st4" d="M466.3,72.2h13.9l22.2,57.8H488l-4.5-11.9H463l-4.5,11.9H444L466.3,72.2z M480,106.8l-6.8-19.4l-6.8,19.4H480
			z"/>
		<path class="st4" d="M507.9,72.2h13.9l20.5,34.4V72.2h14.1V130h-13.9L522,95.5V130h-14.1V72.2z"/>
		<path class="st4" d="M576.7,127.4c-4.5-2.5-8.2-6.2-10.8-10.6c-2.7-4.8-4-10.2-3.9-15.7c-0.1-5.5,1.3-10.9,3.9-15.7
			c2.5-4.5,6.3-8.2,10.8-10.7c9.5-5.1,20.9-5.1,30.4,0c4.5,2.5,8.2,6.2,10.7,10.7c2.7,4.8,4,10.2,3.9,15.7
			c0.1,5.5-1.2,10.9-3.9,15.7c-2.5,4.5-6.2,8.1-10.7,10.6C597.6,132.5,586.2,132.5,576.7,127.4z M599.6,115.5
			c2.4-1.3,4.3-3.3,5.6-5.7c2.7-5.4,2.8-11.9,0-17.3c-1.3-2.4-3.2-4.4-5.5-5.7c-4.9-2.7-10.8-2.7-15.7,0c-2.3,1.4-4.3,3.3-5.5,5.7
			c-1.4,2.7-2.1,5.6-2,8.6c-0.1,3,0.6,6,2,8.7c1.3,2.4,3.2,4.4,5.6,5.7c2.4,1.3,5.1,2,7.8,2C594.6,117.5,597.3,116.8,599.6,115.5z"
			/>
		<path class="st4" d="M632.2,130.2c-3-0.5-5.8-1.5-8.5-2.9v-13.1c2.8,1.5,5.8,2.7,9,3.5c2.9,0.7,5.9,1.1,8.9,1.2
			c2,0.1,4.1-0.3,5.9-1.2c1.3-0.7,2-2.1,2-3.6c0-1.1-0.4-2.2-1.1-3c-0.9-1-2-1.8-3.1-2.4c-1.4-0.7-3.5-1.7-6.5-3
			c-5.1-2.3-8.9-4.8-11.2-7.5c-4.3-5.5-4.7-13.2-0.8-19c1.9-2.7,4.5-4.8,7.4-6c3.5-1.5,7.2-2.2,11-2.2c3,0,6.1,0.2,9.1,0.8
			c2.7,0.6,5.2,1.4,7.6,2.6v12.8c-4.3-2.4-9.2-3.7-14.1-3.8c-2.1-0.1-4.2,0.3-6.1,1.3c-1.4,0.7-2.3,2.1-2.3,3.7s0.9,3.1,2.3,3.9
			c2.7,1.6,5.6,2.9,8.5,4.1c3.1,1.2,6.1,2.8,8.8,4.7c2,1.4,3.5,3.2,4.6,5.4c1,2.5,1.5,5.1,1.4,7.8c0,5.3-1.9,9.5-5.6,12.5
			c-3.7,3-9.3,4.5-16.8,4.5C639.1,131.2,635.6,130.9,632.2,130.2z"/>
	</g>
	<g>
		<path class="st4" d="M284.4,150.9v12.8c0,4.9,2.2,6.9,5,6.9c3.2,0,5.3-2.1,5.3-6.9v-12.8h2.8v12.6c0,6.7-3.5,9.4-8.2,9.4
			c-4.4,0-7.8-2.5-7.8-9.3v-12.8H284.4z"/>
		<path class="st4" d="M302.4,172.5v-21.7h3.1l6.9,11c1.6,2.5,2.9,4.8,3.9,7l0.1,0c-0.3-2.9-0.3-5.5-0.3-8.9v-9.1h2.6v21.7h-2.8
			l-6.9-11c-1.5-2.4-3-4.9-4.1-7.2l-0.1,0c0.2,2.7,0.2,5.3,0.2,8.9v9.3H302.4z"/>
		<path class="st4" d="M326.3,150.9v21.7h-2.8v-21.7H326.3z"/>
		<path class="st4" d="M336,172.5l-7.1-21.7h3l3.4,10.7c0.9,2.9,1.7,5.6,2.3,8.1h0.1c0.6-2.5,1.5-5.2,2.5-8.1l3.7-10.7h3l-7.8,21.7
			H336z"/>
		<path class="st4" d="M360.4,162.4H352v7.8h9.4v2.3h-12.2v-21.7h11.7v2.3H352v6.9h8.4V162.4z"/>
		<path class="st4" d="M365,151.2c1.4-0.3,3.4-0.5,5.4-0.5c3,0,4.9,0.5,6.3,1.8c1.1,1,1.7,2.4,1.7,4.1c0,2.9-1.8,4.8-4.1,5.5v0.1
			c1.7,0.6,2.7,2.1,3.2,4.4c0.7,3,1.2,5.1,1.7,6h-2.9c-0.4-0.6-0.8-2.5-1.4-5.2c-0.6-3-1.8-4.1-4.3-4.2h-2.6v9.4H365V151.2z
			 M367.8,161h2.9c3,0,4.9-1.6,4.9-4.1c0-2.8-2-4-5-4.1c-1.4,0-2.3,0.1-2.8,0.3V161z"/>
		<path class="st4" d="M381.9,169.1c1.3,0.8,3.1,1.4,5,1.4c2.9,0,4.5-1.5,4.5-3.7c0-2-1.2-3.2-4.1-4.3c-3.5-1.3-5.7-3.1-5.7-6.1
			c0-3.4,2.8-5.9,7-5.9c2.2,0,3.8,0.5,4.8,1.1l-0.8,2.3c-0.7-0.4-2.2-1-4.1-1c-3,0-4.1,1.8-4.1,3.2c0,2,1.3,3,4.3,4.2
			c3.7,1.4,5.5,3.2,5.5,6.4c0,3.3-2.5,6.2-7.6,6.2c-2.1,0-4.4-0.6-5.5-1.4L381.9,169.1z"/>
		<path class="st4" d="M401,150.9v21.7h-2.8v-21.7H401z"/>
		<path class="st4" d="M405.8,151.2c1.7-0.3,3.7-0.5,6-0.5c4,0,6.9,0.9,8.8,2.7c1.9,1.8,3.1,4.3,3.1,7.8c0,3.5-1.1,6.4-3.1,8.4
			c-2,2-5.4,3.1-9.6,3.1c-2,0-3.7-0.1-5.1-0.3V151.2z M408.6,170.3c0.7,0.1,1.7,0.2,2.8,0.2c6,0,9.2-3.3,9.2-9.2
			c0-5.1-2.9-8.4-8.8-8.4c-1.4,0-2.5,0.1-3.3,0.3V170.3z"/>
		<path class="st4" d="M430.3,165.7l-2.3,6.8h-2.9l7.4-21.7h3.4l7.4,21.7h-3l-2.3-6.8H430.3z M437.4,163.5l-2.1-6.2
			c-0.5-1.4-0.8-2.7-1.1-4h-0.1c-0.3,1.3-0.7,2.6-1.1,3.9l-2.1,6.3H437.4z"/>
		<path class="st4" d="M446.5,151.2c1.7-0.3,3.7-0.5,6-0.5c4,0,6.9,0.9,8.8,2.7c1.9,1.8,3.1,4.3,3.1,7.8c0,3.5-1.1,6.4-3.1,8.4
			c-2,2-5.4,3.1-9.6,3.1c-2,0-3.7-0.1-5.1-0.3V151.2z M449.3,170.3c0.7,0.1,1.7,0.2,2.8,0.2c6,0,9.2-3.3,9.2-9.2
			c0-5.1-2.9-8.4-8.8-8.4c-1.4,0-2.5,0.1-3.3,0.3V170.3z"/>
		<path class="st4" d="M479.2,162.4h-8.4v7.8h9.4v2.3h-12.2v-21.7h11.7v2.3h-8.9v6.9h8.4V162.4z"/>
		<path class="st4" d="M490.6,151.2c1.7-0.3,3.7-0.5,6-0.5c4,0,6.9,0.9,8.8,2.7c1.9,1.8,3.1,4.3,3.1,7.8c0,3.5-1.1,6.4-3.1,8.4
			c-2,2-5.4,3.1-9.6,3.1c-2,0-3.7-0.1-5.1-0.3V151.2z M493.4,170.3c0.7,0.1,1.7,0.2,2.8,0.2c6,0,9.2-3.3,9.2-9.2
			c0-5.1-2.9-8.4-8.8-8.4c-1.4,0-2.5,0.1-3.3,0.3V170.3z"/>
		<path class="st4" d="M530.5,161.5c0,7.5-4.5,11.4-10.1,11.4c-5.7,0-9.7-4.4-9.7-11c0-6.9,4.3-11.4,10.1-11.4
			C526.7,150.5,530.5,155,530.5,161.5z M513.7,161.8c0,4.6,2.5,8.8,6.9,8.8c4.4,0,6.9-4.1,6.9-9c0-4.3-2.3-8.8-6.9-8.8
			C516,152.8,513.7,157.1,513.7,161.8z"/>
		<path class="st4" d="M533.8,169.1c1.3,0.8,3.1,1.4,5,1.4c2.9,0,4.5-1.5,4.5-3.7c0-2-1.2-3.2-4.1-4.3c-3.5-1.3-5.7-3.1-5.7-6.1
			c0-3.4,2.8-5.9,7-5.9c2.2,0,3.8,0.5,4.8,1.1l-0.8,2.3c-0.7-0.4-2.2-1-4.1-1c-3,0-4.1,1.8-4.1,3.2c0,2,1.3,3,4.3,4.2
			c3.7,1.4,5.5,3.2,5.5,6.4c0,3.3-2.5,6.2-7.6,6.2c-2.1,0-4.4-0.6-5.5-1.4L533.8,169.1z"/>
		<path class="st4" d="M560.3,165.7l-2.3,6.8h-2.9l7.4-21.7h3.4l7.4,21.7h-3l-2.3-6.8H560.3z M567.4,163.5l-2.1-6.2
			c-0.5-1.4-0.8-2.7-1.1-4h-0.1c-0.3,1.3-0.7,2.6-1.1,3.9l-2.1,6.3H567.4z"/>
		<path class="st4" d="M591.2,171.8c-1,0.5-3.1,1-5.7,1l-0.7,1.3c1.2,0.2,2.3,1.1,2.3,2.4c0,1.9-1.6,2.6-3.3,2.6
			c-0.8,0-1.7-0.2-2.3-0.5l0.5-1.4c0.5,0.3,1.1,0.4,1.8,0.4c0.7,0,1.4-0.3,1.4-1c0-0.9-1-1.2-2.5-1.4l1.4-2.5
			c-5.3-0.6-9.1-4.4-9.1-10.9c0-6.8,4.6-11.4,11.3-11.4c2.7,0,4.4,0.6,5.1,1l-0.7,2.3c-1.1-0.5-2.6-0.9-4.4-0.9
			c-5.1,0-8.5,3.2-8.5,8.9c0,5.3,3.1,8.7,8.3,8.7c1.7,0,3.4-0.4,4.6-0.9L591.2,171.8z"/>
		<path class="st4" d="M612.5,161.5c0,7.5-4.5,11.4-10.1,11.4c-5.7,0-9.7-4.4-9.7-11c0-6.9,4.3-11.4,10.1-11.4
			C608.7,150.5,612.5,155,612.5,161.5z M595.7,161.8c0,4.6,2.5,8.8,6.9,8.8c4.4,0,6.9-4.1,6.9-9c0-4.3-2.3-8.8-6.9-8.8
			C598,152.8,595.7,157.1,595.7,161.8z"/>
		<path class="st4" d="M616.2,151.2c1.4-0.3,3.4-0.5,5.4-0.5c3,0,4.9,0.5,6.3,1.8c1.1,1,1.7,2.4,1.7,4.1c0,2.9-1.8,4.8-4.1,5.5v0.1
			c1.7,0.6,2.7,2.1,3.2,4.4c0.7,3,1.2,5.1,1.7,6h-2.9c-0.4-0.6-0.8-2.5-1.4-5.2c-0.6-3-1.8-4.1-4.3-4.2H619v9.4h-2.8V151.2z
			 M619,161h2.9c3,0,4.9-1.6,4.9-4.1c0-2.8-2-4-5-4.1c-1.4,0-2.3,0.1-2.8,0.3V161z"/>
		<path class="st4" d="M644.7,162.4h-8.4v7.8h9.4v2.3h-12.2v-21.7h11.7v2.3h-8.9v6.9h8.4V162.4z"/>
		<path class="st4" d="M648.9,169.1c1.3,0.8,3.1,1.4,5,1.4c2.9,0,4.5-1.5,4.5-3.7c0-2-1.2-3.2-4.1-4.3c-3.5-1.3-5.7-3.1-5.7-6.1
			c0-3.4,2.8-5.9,7-5.9c2.2,0,3.8,0.5,4.8,1.1l-0.8,2.3c-0.7-0.4-2.2-1-4.1-1c-3,0-4.1,1.8-4.1,3.2c0,2,1.3,3,4.3,4.2
			c3.7,1.4,5.5,3.2,5.5,6.4c0,3.3-2.5,6.2-7.6,6.2c-2.1,0-4.4-0.6-5.5-1.4L648.9,169.1z"/>
	</g>
</g>
<g>
	<g>
		<path class="st4" d="M400.4,1431c-5.2-2.9-9.5-7.1-12.4-12.2c-3.1-5.5-4.6-11.8-4.5-18.1c-0.1-6.3,1.5-12.6,4.5-18.1
			c2.9-5.2,7.3-9.5,12.4-12.3c10.9-5.9,24.1-5.9,35,0c5.2,2.9,9.5,7.1,12.3,12.3c3.1,5.5,4.6,11.8,4.5,18.1
			c0.1,6.3-1.4,12.6-4.5,18.1c-2.9,5.2-7.1,9.3-12.3,12.2C424.5,1436.9,411.3,1436.9,400.4,1431z M426.9,1417.3
			c2.8-1.5,5-3.8,6.5-6.6c3.1-6.2,3.2-13.7,0-19.9c-1.5-2.8-3.7-5.1-6.3-6.6c-5.6-3.1-12.4-3.1-18.1,0c-2.7,1.6-5,3.8-6.3,6.6
			c-1.6,3.1-2.4,6.5-2.3,9.9c-0.1,3.5,0.7,6.9,2.3,10c1.5,2.8,3.7,5.1,6.5,6.6c2.8,1.5,5.9,2.3,9,2.3
			C421,1419.6,424.1,1418.8,426.9,1417.3z"/>
		<path class="st4" d="M458.7,1367.4H475v27.7l22.1-27.7h19.2l-25.9,32.4l27.7,34.2h-19.2l-23.9-29.5v29.5h-16.2V1367.4z"/>
		<path class="st4" d="M524.5,1367.4H570v14.2h-29.3v12.4h21.4v13.3h-21.4v12.4H570v14.2h-45.5V1367.4z"/>
		<path class="st4" d="M600.3,1367.4h16L642,1434h-16.6l-5.2-13.7h-23.6l-5.2,13.7h-16.7L600.3,1367.4z M616.1,1407.2l-7.8-22.4
			l-7.8,22.4H616.1z"/>
		<path class="st4" d="M648.3,1367.4h16l23.6,39.6v-39.6h16.2v66.6h-16l-23.6-39.8v39.8h-16.2V1367.4z"/>
		<path class="st4" d="M727.6,1431c-5.2-2.9-9.5-7.1-12.4-12.2c-3.1-5.5-4.6-11.8-4.5-18.1c-0.1-6.3,1.5-12.6,4.5-18.1
			c2.9-5.2,7.3-9.5,12.4-12.3c10.9-5.9,24.1-5.9,35,0c5.2,2.9,9.5,7.1,12.3,12.3c3.1,5.5,4.6,11.8,4.5,18.1
			c0.1,6.3-1.4,12.6-4.5,18.1c-2.9,5.2-7.1,9.3-12.3,12.2C751.7,1436.9,738.5,1436.9,727.6,1431z M754,1417.3c2.8-1.5,5-3.8,6.5-6.6
			c3.1-6.2,3.2-13.7,0-19.9c-1.5-2.8-3.7-5.1-6.3-6.6c-5.6-3.1-12.4-3.1-18.1,0c-2.7,1.6-5,3.8-6.3,6.6c-1.6,3.1-2.4,6.5-2.3,9.9
			c-0.1,3.5,0.7,6.9,2.3,10c1.5,2.8,3.7,5.1,6.5,6.6c2.8,1.5,5.9,2.3,9,2.3C748.2,1419.6,751.3,1418.8,754,1417.3z"/>
		<path class="st4" d="M791.5,1434.2c-3.5-0.6-6.7-1.7-9.8-3.3v-15.1c3.2,1.7,6.7,3.1,10.4,4c3.3,0.8,6.8,1.3,10.3,1.4
			c2.3,0.1,4.7-0.3,6.8-1.4c1.5-0.8,2.3-2.4,2.3-4.1c0-1.3-0.5-2.5-1.3-3.5c-1-1.2-2.3-2.1-3.6-2.8c-1.6-0.8-4-2-7.5-3.5
			c-5.9-2.7-10.3-5.5-12.9-8.6c-5-6.3-5.4-15.2-0.9-21.9c2.2-3.1,5.2-5.5,8.5-6.9c4-1.7,8.3-2.5,12.7-2.5c3.5,0,7,0.2,10.5,0.9
			c3.1,0.7,6,1.6,8.8,3v14.8c-5-2.8-10.6-4.3-16.2-4.4c-2.4-0.1-4.8,0.3-7,1.5c-1.6,0.8-2.7,2.4-2.7,4.3s1,3.6,2.7,4.5
			c3.1,1.8,6.5,3.3,9.8,4.7c3.6,1.4,7,3.2,10.1,5.4c2.3,1.6,4,3.7,5.3,6.2c1.2,2.9,1.7,5.9,1.6,9c0,6.1-2.2,10.9-6.5,14.4
			c-4.3,3.5-10.7,5.2-19.4,5.2C799.5,1435.4,795.5,1435,791.5,1434.2z"/>
	</g>
</g>
<g>
	<g id="r4nNEW.tif_1_">
		<g>
			<path class="st4" d="M530.2,1528c-0.7,0.7-1.3,0.3-1.8,0.2c-16.8-4.7-33.9-6.2-51.3-6.2c-25.3,0.1-50.3,3.3-75.1,7.7
				c-17.1,3.1-34,6.7-50.7,11c-1.2,0.3-2.5,0.6-3.7,1c-9.1,2.4-18,5.6-27.3,7.6c-16.9,3.6-33.9,5.7-51.3,5.7c-2.3,0-4.6,0-6.8-0.1
				c-8.7-0.7-17.4-1.9-26.1-3.6c-1.6-0.6-3.3-1-4.8-1.4c-13.9-4.4-26.3-10.6-37.2-18.6c-1.9-1.5-3.8-3.1-5.6-4.7c0,0,0,0,0,0
				c-5.3-4.8-10.2-10.1-14.7-15.9c-9.7-12.7-16-26.7-19.3-42c-3.3-15.7-3.1-31.3-1.2-47.1c2-16.4,7-31.8,15.8-45.9
				c9.9-15.9,22.7-29.1,39.8-38c2.8-1.4,5.6-2.7,8.5-3.8c10.1-3.9,20.9-5.8,32-6.1c23.9-0.6,43.7,7.9,59.2,25.7
				c0.8,0.9,1.6,1.8,2.2,2.7c0.6,0.9,0.4,1.6-1,1.5c-1.3-0.2-2.5-0.4-3.7-0.6c-7-1.4-14.1-2.5-21.2-3.1c-7.2-0.7-14.5-0.9-21.8-0.5
				c-12.3,0.7-24.2,3.2-35.7,7.3c-10.3,3.7-19.8,8.8-28.2,15.8c-9.4,7.9-16.1,17.6-20,29.1c-5.8,17.2-3.3,33.6,5.9,49.3
				c5.2,9,11.5,17.1,18.6,24.7c0.8,0.9,1.6,1.7,2.4,2.6c1.5,1.6,3.4,2.7,5.2,3.9c0.1,0.1,0.2,0.1,0.3,0.2c3.2,3.3,6,7,8.2,11.1
				c1.8,3.5,3.5,6.9,4.9,10.6c1.7,4.4,6.3,7.8,13.7,10.1c2.3,0.8,4.7,1.3,7,1.7c7.4,1.7,14.8,1.4,21.8-1c0.4-0.1,0.8-0.3,1.2-0.4
				c16.3-5.4,33.3-7,50.5-7.8c19.4-0.9,38.9-0.6,58.3-0.1c10.8,0.3,21.5,1.1,32.2,1.9c1.1,0.1,2.2,0.4,3.3,0.5c0,0.2,0,0.3,0,0.5
				c-2.6,0.7-5.2,0.4-7.8,0.5c-11.4,0.2-22.5,2.3-33.7,4.3c-2.3,0.4-4.5,0.9-6.7,1.3c-11.4,2.3-22.6,5.1-34.1,6.8
				c-15.6,2.4-31.3,3.6-47.2,3c-0.4,0-0.9-0.2-1.8,0.6c3,0.5,5.7,1.1,8.3,1.4c16.6,1.7,33.2,0.8,49.7-1.1c8.6-1,17.1-2.1,25.6-3.4
				c16-2.5,32-5.4,47.9-8.4c17.6-3.2,35.4-4.3,53.3-3.6c14.9,0.5,29.6,2.3,44,6.1c5.9,1.6,11.7,3.4,17.5,5.4
				C528.5,1527,529.3,1527.5,530.2,1528z"/>
			<path class="st4" d="M349.2,1421.9c-0.1,3.4-0.5,6.7-1.8,9.8c-6.3,15.4-14.8,29.5-26.3,41.8c-11.8,12.6-26.5,20.3-44.2,22.3
				c-5.7,0.7-11.5,1.3-17.2-0.2c-5.8-1.6-9.1-4.9-9.7-10.7c-0.4-4.2-2.4-7.3-5.2-9.7c-2.5-3.4-6.1-6.1-10.2-7.5
				c-9.2-4.7-16.2-10.6-20.9-17.9c-1.1-2.2-2-4.4-2.8-6.8c-1-4.6-1.6-8.6-1.8-12.1c0-0.5,0-1,0-1.5c0.3-13.3,7.4-22.9,17.7-30.7
				c6.8-5.2,14.6-8.1,23.4-8.5c0.5,0,1.1-0.1,1.8,0.3c-0.1,0-0.1,0-0.2,0.1c-23,11.3-33.3,28.2-24.8,53.2c1-1.7,0.6-3.6,0.7-5.5
				c0.1-2.5,0.3-4.8,0.8-7.1c1.5-7.4,5-13.9,10.4-19.5c0.4-0.4,0.8-0.8,1.1-1.2c4.2-4,8.7-7.6,14.3-9.8c2.7-1.1,5.5-1.6,8.2-1.7h0
				c3.5-0.1,6.9,0.6,10.4,1.9c6.9,2.6,12.6,7,18.1,11.6c0.1,0.1,0.2,0.2,0.3,0.3c0.1,0.1,0.3,0.3,0.4,0.4c0.1,0.1,0.1,0.3,0.2,0.5
				c-1,0.6-1.8,0-2.6-0.5c-5.1-3-10.3-5.8-16.3-6.7c-5.2-0.8-10.3-0.9-15,1.1c-1,0.4-1.9,0.9-2.8,1.6c-7.9,5.3-12.9,18.9-8.2,27.8
				c2.9,5.4,7.3,9.2,12.9,11.8c0.2,0.1,0.3,0.2,0.5,0.2c0.4,0.2,1,0.4,1.3,0c0.4-0.4-0.1-0.8-0.3-1.2c-2-3.6-3.6-7.3-4.2-11.4
				c-1.1-7.3,0.7-14.1,3.5-20.8c0.4-1,0.9-2,1.3-3c0.2-0.5,0.5-1.1,1.1-1c0.7,0.1,0.4,0.8,0.4,1.3c-0.1,1.3-0.2,2.7-0.2,4
				c-0.1,3-0.2,6-0.1,9c0.1,3.6,0.4,7.2,1.9,10.6c0.7,1.7,1.7,2.8,2.9,3.5c1.5,0.9,3.4,0.9,5.6,0.3c2.7-0.8,5.1-2.2,7.3-3.7
				c4.9-3.3,9.6-6.9,13.4-11.3c7-8.2,7.3-17.5,3.4-27.2c-3.1-7.9-8-14.7-13.8-20.9c-0.7-0.7-1.4-1.4-2-2.1c-1.5-1.7-1.4-2,0.7-2.8
				c6.4-2.6,12.5-2,18.5,1.4c0.3,0.1,0.5,0.3,0.8,0.4c0.2,0.1,0.3,0.2,0.5,0.3c5.4,3.4,9.2,8.2,12.7,13.4c3.9,5.9,6.4,12.3,8.8,18.8
				c0.4,1,0.8,2.1,1.2,3.1c0.7,1.7,1.3,1.9,2.7,0.6c0.4-0.3,0.7-0.7,1.1-1c0.1-0.1,0.3-0.3,0.4-0.4c3.2-3.5,5.3-7.6,6-12.3
				c0.4-2.3,0.5-4.7,0.6-7.1c0.1-0.8,0.1-1.7,0.9-2.5c1.6,2.7,3.2,5.4,4.8,8c1,1.7,1.9,3.5,2.8,5.2
				C347.5,1407.2,349.3,1414.3,349.2,1421.9z"/>
		</g>
	</g>
</g>
<g>
	<path class="st4" d="M397.6,1481.6c-3.6,0-9.5-1.4-9.5-11.1v-15h5v15.1c0,3,0.8,6.7,4.6,6.7c3.2,0,4.8-2.2,4.8-6.7v-15.1h5v14.9
		C407.6,1477.5,404,1481.6,397.6,1481.6z"/>
	<path class="st4" d="M392.2,1456.4v14.1c0,5.3,2.4,7.6,5.6,7.6c3.5,0,5.8-2.3,5.8-7.6v-14.1h3.1v13.9c0,7.3-3.9,10.3-9,10.3
		c-4.9,0-8.6-2.8-8.6-10.2v-14H392.2z"/>
	<path class="st4" d="M427.2,1481.2l-7.9-12.5c-1-1.6-1.9-3.1-2.6-4.4c0,1.7,0.1,3.6,0.1,5.8v11.1H412v-25.8h4.8l7.9,12.5
		c0.8,1.3,1.6,2.6,2.3,3.9c-0.1-1.8-0.1-3.5-0.1-5.5v-10.9h4.8v25.8H427.2z"/>
	<path class="st4" d="M413,1480.2v-23.8h3.4l7.6,12.1c1.8,2.8,3.1,5.3,4.3,7.7l0.1,0c-0.3-3.2-0.4-6.1-0.4-9.8v-10h2.9v23.8h-3.1
		l-7.6-12.1c-1.7-2.7-3.3-5.4-4.5-8l-0.1,0c0.2,3,0.2,5.9,0.2,9.8v10.2H413z"/>
	<rect x="436.2" y="1455.4" class="st4" width="5" height="25.8"/>
	<path class="st4" d="M440.3,1456.4v23.8h-3.1v-23.8H440.3z"/>
	<path class="st4" d="M451.2,1481.2l-8.4-25.8h5.3l3.9,12.4c0.7,2.1,1.2,3.9,1.7,5.6c0.6-1.9,1.2-3.8,1.8-5.6l4.3-12.4h5.3
		l-9.2,25.8H451.2z"/>
	<path class="st4" d="M451.9,1480.2l-7.8-23.8h3.3l3.7,11.7c1,3.2,1.9,6.1,2.5,8.9h0.1c0.7-2.8,1.7-5.8,2.7-8.9l4-11.8h3.3
		l-8.5,23.8H451.9z"/>
	<polygon class="st4" points="466.4,1481.2 466.4,1455.4 481.1,1455.4 481.1,1459.9 471.3,1459.9 471.3,1465.6 480.6,1465.6 
		480.6,1470 471.3,1470 471.3,1476.7 481.7,1476.7 481.7,1481.2 	"/>
	<path class="st4" d="M479.7,1469.1h-9.3v8.6h10.3v2.6h-13.4v-23.8h12.9v2.6h-9.8v7.5h9.3V1469.1z"/>
	<path class="st4" d="M497.5,1481.2l-0.3-0.5c-0.4-0.7-0.9-2.4-1.7-6c-0.7-3.2-1.8-3.8-3.9-3.9l-1.9,0v10.3h-5v-25.3l0.8-0.2
		c1.6-0.3,3.9-0.5,6.1-0.5c3.5,0,5.9,0.7,7.5,2.2c1.4,1.2,2.2,3.1,2.2,5.2c0,2.7-1.3,4.9-3.5,6.2c1.2,1,2,2.5,2.5,4.6
		c0.7,3,1.3,5.5,1.7,6.3l0.8,1.4H497.5z M491.9,1466.6c2.7,0,4.4-1.4,4.4-3.6c0-2.3-1.5-3.5-4.5-3.5c-0.9,0-1.6,0.1-2.1,0.1v7H491.9
		z"/>
	<path class="st4" d="M485.7,1456.7c1.6-0.3,3.8-0.5,5.9-0.5c3.3,0,5.4,0.6,6.9,1.9c1.2,1.1,1.9,2.7,1.9,4.5c0,3.1-2,5.2-4.5,6.1
		v0.1c1.8,0.6,2.9,2.3,3.5,4.8c0.8,3.3,1.3,5.6,1.8,6.5H498c-0.4-0.7-0.9-2.7-1.6-5.7c-0.7-3.3-2-4.5-4.8-4.6h-2.9v10.3h-3.1V1456.7
		z M488.8,1467.6h3.1c3.3,0,5.4-1.8,5.4-4.5c0-3.1-2.2-4.4-5.5-4.5c-1.5,0-2.5,0.1-3,0.3V1467.6z"/>
	<path class="st4" d="M510.6,1481.5c-2.4,0-5.1-0.7-6.6-1.7l-0.6-0.4l1.3-4.4l1.1,0.6c1.4,0.9,3.3,1.4,5,1.4c2.5,0,4-1.2,4-3.1
		c0-1.5-0.6-2.6-3.9-3.9c-4.6-1.6-6.9-4.2-6.9-7.6c0-4.3,3.6-7.4,8.7-7.4c3,0,4.9,0.8,5.7,1.3l0.7,0.4l-1.5,4.3l-1-0.5
		c-0.8-0.5-2.2-1-4.1-1c-2.6,0-3.5,1.4-3.5,2.6c0,1.4,0.6,2.4,4.1,3.7c3.3,1.3,6.7,3.2,6.7,7.9
		C519.9,1477.6,517,1481.5,510.6,1481.5z"/>
	<path class="st4" d="M505.2,1476.5c1.4,0.8,3.4,1.6,5.5,1.6c3.1,0,5-1.7,5-4.1c0-2.2-1.3-3.5-4.5-4.7c-3.9-1.4-6.3-3.4-6.3-6.8
		c0-3.7,3.1-6.5,7.7-6.5c2.4,0,4.2,0.6,5.3,1.2l-0.8,2.5c-0.8-0.4-2.4-1.1-4.5-1.1c-3.3,0-4.5,1.9-4.5,3.6c0,2.2,1.5,3.3,4.7,4.6
		c4,1.6,6.1,3.5,6.1,7c0,3.7-2.7,6.9-8.3,6.9c-2.3,0-4.8-0.7-6.1-1.5L505.2,1476.5z"/>
	<rect x="523.1" y="1455.4" class="st4" width="5" height="25.8"/>
	<path class="st4" d="M527.2,1456.4v23.8h-3.1v-23.8H527.2z"/>
	<path class="st4" d="M539.1,1481.4c-2.1,0-4-0.1-5.7-0.3l-0.8-0.1v-25.1l0.8-0.1c2.2-0.3,4.5-0.5,6.7-0.5c4.6,0,8,1.1,10.3,3.2
		c2.4,2.2,3.7,5.3,3.7,9.3c0,4.1-1.3,7.6-3.7,9.9C547.9,1480.1,544,1481.4,539.1,1481.4z M537.5,1477c0.7,0.1,1.5,0.1,2.2,0.1
		c6,0,9.2-3.2,9.2-9.2c0-2.6-0.7-4.6-2.1-6c-1.5-1.5-3.7-2.2-6.6-2.2c-1.1,0-2,0.1-2.7,0.2V1477z"/>
	<path class="st4" d="M533.5,1456.7c1.9-0.3,4.1-0.5,6.5-0.5c4.4,0,7.6,1,9.7,3c2.1,1.9,3.4,4.7,3.4,8.6c0,3.9-1.2,7.1-3.4,9.3
		c-2.2,2.2-5.9,3.4-10.5,3.4c-2.2,0-4-0.1-5.6-0.3V1456.7z M536.6,1477.8c0.8,0.1,1.9,0.2,3.1,0.2c6.6,0,10.2-3.7,10.2-10.1
		c0-5.6-3.1-9.2-9.7-9.2c-1.6,0-2.8,0.1-3.6,0.3V1477.8z"/>
	<path class="st4" d="M571.7,1481.2l-2.5-7.5h-7.1l-2.5,7.5h-5.2l8.7-25.8h5.1l8.8,25.8H571.7z M567.9,1469.4l-1.9-5.6
		c-0.1-0.4-0.3-0.8-0.4-1.1c-0.1,0.4-0.2,0.7-0.3,1.1l-1.9,5.7H567.9z"/>
	<path class="st4" d="M561.4,1472.7l-2.5,7.5h-3.2l8.1-23.8h3.7l8.1,23.8h-3.3l-2.5-7.5H561.4z M569.2,1470.3l-2.3-6.9
		c-0.5-1.6-0.9-3-1.2-4.4h-0.1c-0.4,1.4-0.7,2.9-1.2,4.3l-2.3,6.9H569.2z"/>
	<path class="st4" d="M585.7,1481.4c-2.1,0-4-0.1-5.7-0.3l-0.8-0.1v-25.1l0.8-0.1c2.2-0.3,4.5-0.5,6.7-0.5c4.6,0,8,1.1,10.3,3.2
		c2.4,2.2,3.7,5.3,3.7,9.3c0,4.1-1.3,7.6-3.7,9.9C594.5,1480.1,590.6,1481.4,585.7,1481.4z M584.2,1477c0.7,0.1,1.5,0.1,2.2,0.1
		c6,0,9.2-3.2,9.2-9.2c0-2.6-0.7-4.6-2.1-6c-1.5-1.5-3.7-2.2-6.6-2.2c-1.1,0-2,0.1-2.7,0.2V1477z"/>
	<path class="st4" d="M580.1,1456.7c1.9-0.3,4.1-0.5,6.5-0.5c4.4,0,7.6,1,9.7,3c2.1,1.9,3.4,4.7,3.4,8.6c0,3.9-1.2,7.1-3.4,9.3
		c-2.2,2.2-5.9,3.4-10.5,3.4c-2.2,0-4-0.1-5.6-0.3V1456.7z M583.2,1477.8c0.8,0.1,1.9,0.2,3.1,0.2c6.6,0,10.2-3.7,10.2-10.1
		c0-5.6-3.1-9.2-9.7-9.2c-1.6,0-2.8,0.1-3.6,0.3V1477.8z"/>
	<polygon class="st4" points="603.7,1481.2 603.7,1455.4 618.5,1455.4 618.5,1459.9 608.7,1459.9 608.7,1465.6 617.9,1465.6 
		617.9,1470 608.7,1470 608.7,1476.7 619,1476.7 619,1481.2 	"/>
	<path class="st4" d="M617,1469.1h-9.3v8.6h10.3v2.6h-13.4v-23.8h12.9v2.6h-9.8v7.5h9.3V1469.1z"/>
	<path class="st4" d="M636.1,1481.4c-2.1,0-4-0.1-5.7-0.3l-0.8-0.1v-25.1l0.8-0.1c2.2-0.3,4.5-0.5,6.7-0.5c4.6,0,8,1.1,10.3,3.2
		c2.4,2.2,3.7,5.3,3.7,9.3c0,4.1-1.3,7.6-3.7,9.9C644.9,1480.1,641,1481.4,636.1,1481.4z M634.5,1477c0.7,0.1,1.5,0.1,2.2,0.1
		c6,0,9.2-3.2,9.2-9.2c0-2.6-0.7-4.6-2.1-6c-1.5-1.5-3.7-2.2-6.6-2.2c-1.1,0-2,0.1-2.7,0.2V1477z"/>
	<path class="st4" d="M630.5,1456.7c1.9-0.3,4.1-0.5,6.5-0.5c4.4,0,7.6,1,9.7,3c2.1,1.9,3.4,4.7,3.4,8.6c0,3.9-1.2,7.1-3.4,9.3
		c-2.2,2.2-5.9,3.4-10.5,3.4c-2.2,0-4-0.1-5.6-0.3V1456.7z M633.6,1477.8c0.8,0.1,1.9,0.2,3.1,0.2c6.6,0,10.2-3.7,10.2-10.1
		c0-5.6-3.1-9.2-9.7-9.2c-1.6,0-2.8,0.1-3.6,0.3V1477.8z"/>
	<path class="st4" d="M664.3,1481.6c-6.9,0-11.7-5.4-11.7-13.1c0-7.9,4.9-13.5,12-13.5c7,0,11.7,5.2,11.7,13
		C676.4,1477.4,670.3,1481.6,664.3,1481.6z M664.6,1459.5c-4.6,0-6.7,4.5-6.7,9c0,4.2,2.1,8.7,6.7,8.7c4.6,0,6.7-4.5,6.7-9
		C671.2,1464,669.1,1459.5,664.6,1459.5z"/>
	<path class="st4" d="M675.4,1468.1c0,8.2-5,12.6-11.1,12.6c-6.3,0-10.7-4.9-10.7-12.1c0-7.6,4.7-12.5,11.1-12.5
		C671.2,1456,675.4,1461,675.4,1468.1z M656.9,1468.5c0,5.1,2.8,9.7,7.6,9.7c4.9,0,7.6-4.5,7.6-9.9c0-4.7-2.5-9.7-7.6-9.7
		C659.5,1458.5,656.9,1463.2,656.9,1468.5z"/>
	<path class="st4" d="M685.3,1481.5c-2.4,0-5.1-0.7-6.6-1.7l-0.6-0.4l1.3-4.4l1.1,0.6c1.4,0.9,3.3,1.4,5,1.4c2.5,0,4-1.2,4-3.1
		c0-1.5-0.6-2.6-3.9-3.9c-4.6-1.6-6.9-4.2-6.9-7.6c0-4.3,3.6-7.4,8.7-7.4c3,0,4.9,0.8,5.7,1.3l0.7,0.4l-1.5,4.3l-1-0.5
		c-0.8-0.5-2.2-1-4.1-1c-2.6,0-3.5,1.4-3.5,2.6c0,1.4,0.6,2.4,4.1,3.7c3.3,1.3,6.7,3.2,6.7,7.9
		C694.6,1477.6,691.7,1481.5,685.3,1481.5z"/>
	<path class="st4" d="M679.9,1476.5c1.4,0.8,3.4,1.6,5.5,1.6c3.1,0,5-1.7,5-4.1c0-2.2-1.3-3.5-4.5-4.7c-3.9-1.4-6.3-3.4-6.3-6.8
		c0-3.7,3.1-6.5,7.7-6.5c2.4,0,4.2,0.6,5.3,1.2l-0.8,2.5c-0.8-0.4-2.4-1.1-4.5-1.1c-3.3,0-4.5,1.9-4.5,3.6c0,2.2,1.5,3.3,4.7,4.6
		c4,1.6,6.1,3.5,6.1,7c0,3.7-2.7,6.9-8.3,6.9c-2.3,0-4.8-0.7-6.1-1.5L679.9,1476.5z"/>
	<path class="st4" d="M720.4,1481.2l-2.5-7.5h-7.1l-2.5,7.5h-5.2l8.7-25.8h5.1l8.8,25.8H720.4z M716.6,1469.4l-1.9-5.6
		c-0.1-0.4-0.3-0.8-0.4-1.1c-0.1,0.4-0.2,0.7-0.3,1.1l-1.9,5.7H716.6z"/>
	<path class="st4" d="M710.1,1472.7l-2.5,7.5h-3.2l8.1-23.8h3.7l8.1,23.8h-3.3l-2.5-7.5H710.1z M717.9,1470.3l-2.3-6.9
		c-0.5-1.6-0.9-3-1.2-4.4h-0.1c-0.4,1.4-0.7,2.9-1.2,4.3l-2.3,6.9H717.9z"/>
	<path class="st4" d="M736.8,1488.5c-1.1,0-2.2-0.3-3-0.7l-0.7-0.4l1-3.3l-0.2,0l1.5-2.8c-5.9-1.3-9.5-6-9.5-12.7
		c0-7.9,5.5-13.5,13.4-13.5c3.5,0,5.4,0.8,6.1,1.2l0.7,0.4l-1.3,4.3l-1-0.5c-0.7-0.3-2.2-0.9-4.4-0.9c-5.2,0-8.4,3.3-8.4,8.9
		c0,5.4,3.1,8.6,8.2,8.6c1.7,0,3.5-0.3,4.6-0.9l1-0.5l1.1,4.3l-0.7,0.3c-1.4,0.7-3.6,1.2-6,1.2c1.2,0.6,1.9,1.8,1.9,3.1
		C741.4,1487,739.6,1488.5,736.8,1488.5z M735.2,1484.5c0.4,0.2,1,0.3,1.5,0.3c0.4,0,0.5-0.1,0.5-0.1c0-0.1-0.4-0.4-1.9-0.6l-1-0.1
		L735.2,1484.5z"/>
	<path class="st4" d="M745,1479.5c-1.1,0.6-3.4,1.1-6.3,1.1l-0.8,1.4c1.3,0.2,2.5,1.2,2.5,2.7c0,2.1-1.8,2.9-3.6,2.9
		c-0.9,0-1.9-0.2-2.5-0.6l0.5-1.6c0.5,0.3,1.2,0.5,2,0.5c0.8,0,1.5-0.3,1.5-1.1c0-1-1.1-1.3-2.8-1.5l1.5-2.7c-5.8-0.7-10-4.8-10-12
		c0-7.5,5.1-12.5,12.5-12.5c3,0,4.8,0.6,5.7,1.1l-0.7,2.5c-1.2-0.6-2.8-1-4.8-1c-5.6,0-9.3,3.6-9.3,9.8c0,5.8,3.4,9.6,9.2,9.6
		c1.9,0,3.8-0.4,5-1L745,1479.5z"/>
	<path class="st4" d="M758.4,1481.6c-6.9,0-11.7-5.4-11.7-13.1c0-7.9,4.9-13.5,12-13.5c7,0,11.7,5.2,11.7,13
		C770.4,1477.4,764.4,1481.6,758.4,1481.6z M758.6,1459.5c-4.6,0-6.7,4.5-6.7,9c0,4.2,2.1,8.7,6.7,8.7c4.6,0,6.7-4.5,6.7-9
		C765.3,1464,763.2,1459.5,758.6,1459.5z"/>
	<path class="st4" d="M769.5,1468.1c0,8.2-5,12.6-11.1,12.6c-6.3,0-10.7-4.9-10.7-12.1c0-7.6,4.7-12.5,11.1-12.5
		C765.3,1456,769.5,1461,769.5,1468.1z M751,1468.5c0,5.1,2.8,9.7,7.6,9.7c4.9,0,7.6-4.5,7.6-9.9c0-4.7-2.5-9.7-7.6-9.7
		C753.5,1458.5,751,1463.2,751,1468.5z"/>
	<path class="st4" d="M786.2,1481.2l-0.3-0.5c-0.4-0.7-0.9-2.4-1.7-6c-0.7-3.2-1.8-3.8-3.9-3.9l-1.9,0v10.3h-5v-25.3l0.8-0.2
		c1.6-0.3,3.9-0.5,6.1-0.5c3.5,0,5.9,0.7,7.5,2.2c1.4,1.2,2.2,3.1,2.2,5.2c0,2.7-1.3,4.9-3.5,6.2c1.2,1,2,2.5,2.5,4.6
		c0.7,3,1.3,5.5,1.8,6.3l0.8,1.4H786.2z M780.7,1466.6c2.7,0,4.4-1.4,4.4-3.6c0-2.3-1.5-3.5-4.5-3.5c-0.9,0-1.6,0.1-2.1,0.1v7H780.7
		z"/>
	<path class="st4" d="M774.4,1456.7c1.6-0.3,3.8-0.5,5.9-0.5c3.3,0,5.4,0.6,6.9,1.9c1.2,1.1,1.9,2.7,1.9,4.5c0,3.1-2,5.2-4.5,6.1
		v0.1c1.8,0.6,2.9,2.3,3.5,4.8c0.8,3.3,1.3,5.6,1.8,6.5h-3.2c-0.4-0.7-0.9-2.7-1.6-5.7c-0.7-3.3-2-4.5-4.8-4.6h-2.9v10.3h-3.1
		V1456.7z M777.5,1467.6h3.1c3.3,0,5.4-1.8,5.4-4.5c0-3.1-2.2-4.4-5.5-4.5c-1.5,0-2.5,0.1-3,0.3V1467.6z"/>
	<polygon class="st4" points="793.5,1481.2 793.5,1455.4 808.3,1455.4 808.3,1459.9 798.5,1459.9 798.5,1465.6 807.7,1465.6 
		807.7,1470 798.5,1470 798.5,1476.7 808.8,1476.7 808.8,1481.2 	"/>
	<path class="st4" d="M806.8,1469.1h-9.3v8.6h10.3v2.6h-13.4v-23.8h12.9v2.6h-9.8v7.5h9.3V1469.1z"/>
	<path class="st4" d="M817.7,1481.5c-2.4,0-5.1-0.7-6.6-1.7l-0.6-0.4l1.3-4.4l1.1,0.6c1.4,0.9,3.3,1.4,5,1.4c2.5,0,4-1.2,4-3.1
		c0-1.5-0.6-2.6-3.9-3.9c-4.6-1.6-6.9-4.2-6.9-7.6c0-4.3,3.6-7.4,8.7-7.4c3,0,4.9,0.8,5.7,1.3l0.7,0.4l-1.5,4.3l-1-0.5
		c-0.8-0.5-2.2-1-4.1-1c-2.6,0-3.5,1.4-3.5,2.6c0,1.4,0.6,2.4,4.1,3.7c3.3,1.3,6.7,3.2,6.7,7.9
		C827,1477.6,824.1,1481.5,817.7,1481.5z"/>
	<path class="st4" d="M812.4,1476.5c1.4,0.8,3.4,1.6,5.5,1.6c3.1,0,5-1.7,5-4.1c0-2.2-1.3-3.5-4.5-4.7c-3.9-1.4-6.3-3.4-6.3-6.8
		c0-3.7,3.1-6.5,7.7-6.5c2.4,0,4.2,0.6,5.3,1.2l-0.8,2.5c-0.8-0.4-2.4-1.1-4.5-1.1c-3.3,0-4.5,1.9-4.5,3.6c0,2.2,1.5,3.3,4.7,4.6
		c4,1.6,6.1,3.5,6.1,7c0,3.7-2.7,6.9-8.3,6.9c-2.3,0-4.8-0.7-6.1-1.5L812.4,1476.5z"/>
</g>
<g>
	<g>
		<path class="st4" d="M414.3,1867.7c-5.2-2.9-9.5-7.1-12.4-12.2c-3.1-5.5-4.6-11.8-4.5-18.1c-0.1-6.3,1.5-12.6,4.5-18.1
			c2.9-5.2,7.3-9.5,12.4-12.3c10.9-5.9,24.1-5.9,35,0c5.2,2.9,9.5,7.1,12.3,12.3c3.1,5.5,4.6,11.8,4.5,18.1
			c0.1,6.3-1.4,12.6-4.5,18.1c-2.9,5.2-7.1,9.3-12.3,12.2C438.4,1873.5,425.2,1873.5,414.3,1867.7z M440.8,1853.9
			c2.8-1.5,5-3.8,6.5-6.6c3.1-6.2,3.2-13.7,0-19.9c-1.5-2.8-3.7-5.1-6.3-6.6c-5.6-3.1-12.4-3.1-18.1,0c-2.7,1.6-5,3.8-6.3,6.6
			c-1.6,3.1-2.4,6.5-2.3,9.9c-0.1,3.5,0.7,6.9,2.3,10c1.5,2.8,3.7,5.1,6.5,6.6c2.8,1.5,5.9,2.3,9,2.3
			C434.9,1856.2,438,1855.4,440.8,1853.9z"/>
		<path class="st4" d="M472.6,1804h16.2v27.7L511,1804h19.2l-25.9,32.4l27.7,34.2h-19.2l-23.9-29.5v29.5h-16.2V1804z"/>
		<path class="st4" d="M538.4,1804h45.5v14.2h-29.3v12.4h21.4v13.3h-21.4v12.4h29.3v14.2h-45.5V1804z"/>
		<path class="st4" d="M614.2,1804h16l25.6,66.6h-16.6l-5.2-13.7h-23.6l-5.2,13.7h-16.7L614.2,1804z M630,1843.9l-7.8-22.4
			l-7.8,22.4H630z"/>
		<path class="st4" d="M662.2,1804h16l23.6,39.6V1804h16.2v66.6h-16l-23.6-39.8v39.8h-16.2V1804z"/>
		<path class="st4" d="M741.5,1867.7c-5.2-2.9-9.5-7.1-12.4-12.2c-3.1-5.5-4.6-11.8-4.5-18.1c-0.1-6.3,1.5-12.6,4.5-18.1
			c2.9-5.2,7.3-9.5,12.4-12.3c10.9-5.9,24.1-5.9,35,0c5.2,2.9,9.5,7.1,12.3,12.3c3.1,5.5,4.6,11.8,4.5,18.1
			c0.1,6.3-1.4,12.6-4.5,18.1c-2.9,5.2-7.1,9.3-12.3,12.2C765.6,1873.5,752.4,1873.5,741.5,1867.7z M767.9,1853.9
			c2.8-1.5,5-3.8,6.5-6.6c3.1-6.2,3.2-13.7,0-19.9c-1.5-2.8-3.7-5.1-6.3-6.6c-5.6-3.1-12.4-3.1-18.1,0c-2.7,1.6-5,3.8-6.3,6.6
			c-1.6,3.1-2.4,6.5-2.3,9.9c-0.1,3.5,0.7,6.9,2.3,10c1.5,2.8,3.7,5.1,6.5,6.6c2.8,1.5,5.9,2.3,9,2.3
			C762.1,1856.2,765.2,1855.4,767.9,1853.9z"/>
		<path class="st4" d="M805.4,1870.9c-3.5-0.6-6.7-1.7-9.8-3.3v-15.1c3.2,1.7,6.7,3.1,10.4,4c3.3,0.8,6.8,1.3,10.3,1.4
			c2.3,0.1,4.7-0.3,6.8-1.4c1.5-0.8,2.3-2.4,2.3-4.1c0-1.3-0.5-2.5-1.3-3.5c-1-1.2-2.3-2.1-3.6-2.8c-1.6-0.8-4-2-7.5-3.5
			c-5.9-2.7-10.3-5.5-12.9-8.6c-5-6.3-5.4-15.2-0.9-21.9c2.2-3.1,5.2-5.5,8.5-6.9c4-1.7,8.3-2.5,12.7-2.5c3.5,0,7,0.2,10.5,0.9
			c3.1,0.7,6,1.6,8.8,3v14.8c-5-2.8-10.6-4.3-16.2-4.4c-2.4-0.1-4.8,0.3-7,1.5c-1.6,0.8-2.7,2.4-2.7,4.3c0,1.8,1,3.6,2.7,4.5
			c3.1,1.8,6.5,3.3,9.8,4.7c3.6,1.4,7,3.2,10.1,5.4c2.3,1.6,4,3.7,5.3,6.2c1.2,2.9,1.7,5.9,1.6,9c0,6.1-2.2,10.9-6.5,14.4
			s-10.7,5.2-19.4,5.2C813.4,1872,809.4,1871.7,805.4,1870.9z"/>
	</g>
</g>
<g>
	<g id="r4nNEW.tif_2_">
		<g>
			<path class="st4" d="M544.1,1964.7c-0.7,0.7-1.3,0.3-1.8,0.2c-16.8-4.7-33.9-6.2-51.3-6.2c-25.3,0.1-50.3,3.3-75.1,7.7
				c-17.1,3.1-34,6.7-50.7,11c-1.2,0.3-2.5,0.6-3.7,1c-9.1,2.4-18,5.6-27.3,7.6c-16.9,3.6-33.9,5.7-51.3,5.7c-2.3,0-4.6,0-6.8-0.1
				c-8.7-0.7-17.4-1.9-26.1-3.6c-1.6-0.6-3.3-1-4.8-1.4c-13.9-4.4-26.3-10.6-37.2-18.6c-1.9-1.5-3.8-3.1-5.6-4.7c0,0,0,0,0,0
				c-5.3-4.8-10.2-10.1-14.7-15.9c-9.7-12.7-16-26.7-19.3-42c-3.3-15.7-3.1-31.3-1.2-47.1c2-16.4,7-31.8,15.8-45.9
				c9.9-15.9,22.7-29.1,39.8-38c2.8-1.4,5.6-2.7,8.5-3.8c10.1-3.9,20.9-5.8,32-6.1c23.9-0.6,43.7,7.9,59.2,25.7
				c0.8,0.9,1.6,1.8,2.2,2.7c0.6,0.9,0.4,1.6-1,1.5c-1.3-0.2-2.5-0.4-3.7-0.6c-7-1.4-14.1-2.5-21.2-3.1c-7.2-0.7-14.5-0.9-21.8-0.5
				c-12.3,0.7-24.2,3.2-35.7,7.3c-10.3,3.7-19.8,8.8-28.2,15.8c-9.4,7.9-16.1,17.6-20,29.1c-5.8,17.2-3.3,33.6,5.9,49.3
				c5.2,9,11.5,17.1,18.6,24.7c0.8,0.9,1.6,1.7,2.4,2.6c1.5,1.6,3.4,2.7,5.2,3.9c0.1,0.1,0.2,0.1,0.3,0.2c3.2,3.3,6,7,8.2,11.1
				c1.8,3.5,3.5,6.9,4.9,10.6c1.7,4.4,6.3,7.8,13.7,10.1c2.3,0.8,4.7,1.3,7,1.7c7.4,1.7,14.8,1.4,21.8-1c0.4-0.1,0.8-0.3,1.2-0.4
				c16.3-5.4,33.3-7,50.5-7.8c19.4-0.9,38.9-0.6,58.3-0.1c10.8,0.3,21.5,1.1,32.2,1.9c1.1,0.1,2.2,0.4,3.3,0.5c0,0.2,0,0.3,0,0.5
				c-2.6,0.7-5.2,0.4-7.8,0.5c-11.4,0.2-22.5,2.3-33.7,4.3c-2.3,0.4-4.5,0.9-6.7,1.3c-11.4,2.3-22.6,5.1-34.1,6.8
				c-15.6,2.4-31.3,3.6-47.2,3c-0.4,0-0.9-0.2-1.8,0.6c3,0.5,5.7,1.1,8.3,1.4c16.6,1.7,33.2,0.8,49.7-1.1c8.6-1,17.1-2.1,25.6-3.4
				c16-2.5,32-5.4,47.9-8.4c17.6-3.2,35.4-4.3,53.3-3.6c14.9,0.5,29.6,2.3,44,6.1c5.9,1.6,11.7,3.4,17.5,5.4
				C542.4,1963.6,543.2,1964.2,544.1,1964.7z"/>
			<path class="st4" d="M363.1,1858.6c-0.1,3.4-0.5,6.7-1.8,9.8c-6.3,15.4-14.8,29.5-26.3,41.8c-11.8,12.6-26.5,20.3-44.2,22.3
				c-5.7,0.7-11.5,1.3-17.2-0.2c-5.8-1.6-9.1-4.9-9.7-10.7c-0.4-4.2-2.4-7.3-5.2-9.7c-2.5-3.4-6.1-6.1-10.2-7.5
				c-9.2-4.7-16.2-10.6-20.9-17.9c-1.1-2.2-2-4.4-2.8-6.8c-1-4.6-1.6-8.6-1.8-12.1c0-0.5,0-1,0-1.5c0.3-13.3,7.4-22.9,17.7-30.7
				c6.8-5.2,14.6-8.1,23.4-8.5c0.5,0,1.1-0.1,1.8,0.3c-0.1,0-0.1,0-0.2,0.1c-23,11.3-33.3,28.2-24.8,53.2c1-1.7,0.6-3.6,0.7-5.5
				c0.1-2.5,0.3-4.8,0.8-7.1c1.5-7.4,5-13.9,10.4-19.5c0.4-0.4,0.8-0.8,1.1-1.2c4.2-4,8.7-7.6,14.3-9.8c2.7-1.1,5.5-1.6,8.2-1.7h0
				c3.5-0.1,6.9,0.6,10.4,1.9c6.9,2.6,12.6,7,18.1,11.6c0.1,0.1,0.2,0.2,0.3,0.3c0.1,0.1,0.3,0.3,0.4,0.4c0.1,0.1,0.1,0.3,0.2,0.5
				c-1,0.6-1.8,0-2.6-0.5c-5.1-3-10.3-5.8-16.3-6.7c-5.2-0.8-10.3-0.9-15,1.1c-1,0.4-1.9,0.9-2.8,1.6c-7.9,5.3-12.9,18.9-8.2,27.8
				c2.9,5.4,7.3,9.2,12.9,11.8c0.2,0.1,0.3,0.2,0.5,0.2c0.4,0.2,1,0.4,1.3,0c0.4-0.4-0.1-0.8-0.3-1.2c-2-3.6-3.6-7.3-4.2-11.4
				c-1.1-7.3,0.7-14.1,3.5-20.8c0.4-1,0.9-2,1.3-3c0.2-0.5,0.5-1.1,1.1-1c0.7,0.1,0.4,0.8,0.4,1.3c-0.1,1.3-0.2,2.7-0.2,4
				c-0.1,3-0.2,6-0.1,9c0.1,3.6,0.4,7.2,1.9,10.6c0.7,1.7,1.7,2.8,2.9,3.5c1.5,0.9,3.4,0.9,5.6,0.3c2.7-0.8,5.1-2.2,7.3-3.7
				c4.9-3.3,9.6-6.9,13.4-11.3c7-8.2,7.3-17.5,3.4-27.2c-3.1-7.9-8-14.7-13.8-20.9c-0.7-0.7-1.4-1.4-2-2.1c-1.5-1.7-1.4-2,0.7-2.8
				c6.4-2.6,12.5-2,18.5,1.4c0.3,0.1,0.5,0.3,0.8,0.4c0.2,0.1,0.3,0.2,0.5,0.3c5.4,3.4,9.2,8.2,12.7,13.4c3.9,5.9,6.4,12.3,8.8,18.8
				c0.4,1,0.8,2.1,1.2,3.1c0.7,1.7,1.3,1.9,2.7,0.6c0.4-0.3,0.7-0.7,1.1-1c0.1-0.1,0.3-0.3,0.4-0.4c3.2-3.5,5.3-7.6,6-12.3
				c0.4-2.3,0.5-4.7,0.6-7.1c0.1-0.8,0.1-1.7,0.9-2.5c1.6,2.7,3.2,5.4,4.8,8c1,1.7,1.9,3.5,2.8,5.2
				C361.4,1843.9,363.2,1851,363.1,1858.6z"/>
		</g>
	</g>
</g>
<text transform="matrix(1 0 0 1 819.452 1866.653)" style="font-family:'Avenir-Heavy'; font-size:96.5863px; letter-spacing:-6;">-UAç</text>
<g>
	<g>
		<g>
			<path class="st4" d="M286.3,901.7c-5.6-3.1-10.3-7.8-13.5-13.3c-3.4-6-5-12.8-4.9-19.7c-0.1-6.9,1.6-13.7,4.9-19.7
				c3.1-5.6,7.9-10.3,13.5-13.4c11.9-6.4,26.2-6.4,38.1,0c5.6,3.1,10.3,7.8,13.4,13.4c3.4,6,5,12.8,4.9,19.7
				c0.1,6.9-1.5,13.7-4.9,19.7c-3.1,5.6-7.8,10.2-13.4,13.3C312.5,908.1,298.2,908.1,286.3,901.7z M315.1,886.8c3-1.6,5.4-4.1,7-7.1
				c3.4-6.8,3.5-14.9,0-21.7c-1.6-3-4-5.5-6.9-7.1c-6.1-3.4-13.5-3.4-19.7,0c-2.9,1.8-5.4,4.1-6.9,7.1c-1.8,3.4-2.6,7-2.5,10.8
				c-0.1,3.8,0.8,7.5,2.5,10.9c1.6,3,4,5.5,7,7.1s6.4,2.5,9.8,2.5C308.7,889.3,312.1,888.4,315.1,886.8z"/>
			<path class="st4" d="M349.7,832.5h17.7v30.1l24.1-30.1h20.9l-28.2,35.2l30.1,37.2h-20.9l-25.9-32.1V905h-17.7V832.5z"/>
			<path class="st4" d="M421.3,832.5h49.5v15.4h-31.8v13.5h23.3v14.4h-23.3v13.5h31.8v15.4h-49.5V832.5z"/>
			<path class="st4" d="M503.7,832.5h17.4L549,905h-18l-5.6-14.9h-25.7l-5.6,14.9h-18.2L503.7,832.5z M520.9,875.9l-8.5-24.3
				l-8.5,24.3H520.9z"/>
			<path class="st4" d="M555.8,832.5h17.4l25.7,43.1v-43.1h17.7V905h-17.4l-25.7-43.2V905h-17.7V832.5z"/>
			<path class="st4" d="M642.1,901.7c-5.6-3.1-10.3-7.8-13.5-13.3c-3.4-6-5-12.8-4.9-19.7c-0.1-6.9,1.6-13.7,4.9-19.7
				c3.1-5.6,7.9-10.3,13.5-13.4c11.9-6.4,26.2-6.4,38.1,0c5.6,3.1,10.3,7.8,13.4,13.4c3.4,6,5,12.8,4.9,19.7
				c0.1,6.9-1.5,13.7-4.9,19.7c-3.1,5.6-7.8,10.2-13.4,13.3C668.2,908.1,654,908.1,642.1,901.7z M670.8,886.8c3-1.6,5.4-4.1,7-7.1
				c3.4-6.8,3.5-14.9,0-21.7c-1.6-3-4-5.5-6.9-7.1c-6.1-3.4-13.5-3.4-19.7,0c-2.9,1.8-5.4,4.1-6.9,7.1c-1.8,3.4-2.6,7-2.5,10.8
				c-0.1,3.8,0.8,7.5,2.5,10.9c1.6,3,4,5.5,7,7.1c3,1.6,6.4,2.5,9.8,2.5S667.9,888.4,670.8,886.8z"/>
			<path class="st4" d="M711.6,905.2c-3.8-0.6-7.3-1.9-10.7-3.6v-16.4c3.5,1.9,7.3,3.4,11.3,4.4c3.6,0.9,7.4,1.4,11.2,1.5
				c2.5,0.1,5.1-0.4,7.4-1.5c1.6-0.9,2.5-2.6,2.5-4.5c0-1.4-0.5-2.8-1.4-3.8c-1.1-1.3-2.5-2.3-3.9-3c-1.8-0.9-4.4-2.1-8.1-3.8
				c-6.4-2.9-11.2-6-14-9.4c-5.4-6.9-5.9-16.5-1-23.8c2.4-3.4,5.6-6,9.3-7.5c4.4-1.9,9-2.8,13.8-2.8c3.8,0,7.6,0.3,11.4,1
				c3.4,0.8,6.5,1.8,9.5,3.3v16c-5.4-3-11.5-4.6-17.7-4.8c-2.6-0.1-5.3,0.4-7.6,1.6c-1.8,0.9-2.9,2.6-2.9,4.6s1.1,3.9,2.9,4.9
				c3.4,2,7,3.6,10.7,5.1c3.9,1.5,7.6,3.5,11,5.9c2.5,1.8,4.4,4,5.8,6.8c1.3,3.1,1.9,6.4,1.8,9.8c0,6.6-2.4,11.9-7,15.7
				c-4.6,3.8-11.7,5.6-21.1,5.6C720.2,906.5,715.9,906.1,711.6,905.2z"/>
		</g>
		<g>
			<path class="st4" d="M275.5,921.1v16.2c0,6.1,2.7,8.7,6.4,8.7c4.1,0,6.7-2.7,6.7-8.7v-16.2h3.6v16c0,8.4-4.4,11.9-10.4,11.9
				c-5.6,0-9.8-3.2-9.8-11.7v-16.1H275.5z"/>
			<path class="st4" d="M298.3,948.5v-27.4h3.9l8.8,13.8c2,3.2,3.6,6.1,4.9,8.9l0.1,0c-0.3-3.7-0.4-7-0.4-11.2v-11.5h3.3v27.4h-3.6
				l-8.7-13.9c-1.9-3-3.7-6.2-5.1-9.1l-0.1,0c0.2,3.5,0.3,6.7,0.3,11.3v11.7H298.3z"/>
			<path class="st4" d="M328.5,921.1v27.4H325v-27.4H328.5z"/>
			<path class="st4" d="M340.7,948.5l-8.9-27.4h3.8l4.3,13.5c1.2,3.7,2.2,7,2.9,10.2h0.1c0.8-3.2,1.9-6.6,3.1-10.2l4.6-13.5h3.8
				l-9.8,27.4H340.7z"/>
			<path class="st4" d="M371.5,935.7h-10.6v9.9h11.9v3h-15.4v-27.4h14.8v3h-11.2v8.6h10.6V935.7z"/>
			<path class="st4" d="M377.3,921.5c1.8-0.4,4.3-0.6,6.8-0.6c3.8,0,6.2,0.7,7.9,2.2c1.4,1.2,2.2,3.1,2.2,5.2c0,3.6-2.3,6-5.2,7v0.1
				c2.1,0.7,3.4,2.7,4,5.5c0.9,3.8,1.5,6.5,2.1,7.5h-3.7c-0.4-0.8-1.1-3.1-1.8-6.5c-0.8-3.8-2.3-5.2-5.5-5.3h-3.3v11.9h-3.5V921.5z
				 M380.9,934h3.6c3.8,0,6.2-2.1,6.2-5.2c0-3.5-2.6-5.1-6.3-5.1c-1.7,0-2.9,0.2-3.5,0.3V934z"/>
			<path class="st4" d="M398.7,944.2c1.6,1,3.9,1.8,6.3,1.8c3.6,0,5.7-1.9,5.7-4.7c0-2.6-1.5-4-5.2-5.4c-4.5-1.6-7.2-3.9-7.2-7.8
				c0-4.3,3.5-7.4,8.9-7.4c2.8,0,4.8,0.6,6.1,1.3l-1,2.9c-0.9-0.5-2.7-1.3-5.2-1.3c-3.7,0-5.2,2.2-5.2,4.1c0,2.6,1.7,3.8,5.4,5.3
				c4.6,1.8,7,4,7,8c0,4.2-3.1,7.9-9.6,7.9c-2.6,0-5.5-0.8-7-1.7L398.7,944.2z"/>
			<path class="st4" d="M422.8,921.1v27.4h-3.5v-27.4H422.8z"/>
			<path class="st4" d="M428.9,921.5c2.2-0.3,4.7-0.6,7.5-0.6c5.1,0,8.7,1.2,11.1,3.4c2.4,2.2,3.9,5.4,3.9,9.8
				c0,4.5-1.4,8.1-3.9,10.6c-2.6,2.6-6.8,3.9-12.1,3.9c-2.5,0-4.6-0.1-6.4-0.3V921.5z M432.5,945.7c0.9,0.2,2.2,0.2,3.6,0.2
				c7.6,0,11.7-4.2,11.7-11.6c0-6.5-3.6-10.6-11.1-10.6c-1.8,0-3.2,0.2-4.1,0.4V945.7z"/>
			<path class="st4" d="M459.8,939.9l-2.8,8.6h-3.7l9.3-27.4h4.3l9.3,27.4h-3.8l-2.9-8.6H459.8z M468.8,937.2l-2.7-7.9
				c-0.6-1.8-1-3.4-1.4-5h-0.1c-0.4,1.6-0.9,3.3-1.4,5l-2.7,7.9H468.8z"/>
			<path class="st4" d="M480.3,921.5c2.2-0.3,4.7-0.6,7.5-0.6c5.1,0,8.7,1.2,11.1,3.4c2.4,2.2,3.9,5.4,3.9,9.8
				c0,4.5-1.4,8.1-3.9,10.6c-2.6,2.6-6.8,3.9-12.1,3.9c-2.5,0-4.6-0.1-6.4-0.3V921.5z M483.8,945.7c0.9,0.2,2.2,0.2,3.6,0.2
				c7.6,0,11.7-4.2,11.7-11.6c0-6.5-3.6-10.6-11.1-10.6c-1.8,0-3.2,0.2-4.1,0.4V945.7z"/>
			<path class="st4" d="M521.5,935.7h-10.6v9.9h11.9v3h-15.4v-27.4h14.8v3h-11.2v8.6h10.6V935.7z"/>
			<path class="st4" d="M535.9,921.5c2.2-0.3,4.7-0.6,7.5-0.6c5.1,0,8.7,1.2,11.1,3.4c2.4,2.2,3.9,5.4,3.9,9.8
				c0,4.5-1.4,8.1-3.9,10.6c-2.6,2.6-6.8,3.9-12.1,3.9c-2.5,0-4.6-0.1-6.4-0.3V921.5z M539.4,945.7c0.9,0.2,2.2,0.2,3.6,0.2
				c7.6,0,11.7-4.2,11.7-11.6c0-6.5-3.6-10.6-11.1-10.6c-1.8,0-3.2,0.2-4.1,0.4V945.7z"/>
			<path class="st4" d="M586.3,934.6c0,9.4-5.7,14.4-12.7,14.4c-7.2,0-12.3-5.6-12.3-13.9c0-8.7,5.4-14.4,12.7-14.4
				C581.5,920.7,586.3,926.4,586.3,934.6z M565.1,935c0,5.8,3.2,11.1,8.7,11.1c5.6,0,8.8-5.2,8.8-11.4c0-5.4-2.8-11.1-8.7-11.1
				C568,923.6,565.1,929,565.1,935z"/>
			<path class="st4" d="M590.4,944.2c1.6,1,3.9,1.8,6.3,1.8c3.6,0,5.7-1.9,5.7-4.7c0-2.6-1.5-4-5.2-5.4c-4.5-1.6-7.2-3.9-7.2-7.8
				c0-4.3,3.5-7.4,8.9-7.4c2.8,0,4.8,0.6,6.1,1.3l-1,2.9c-0.9-0.5-2.7-1.3-5.2-1.3c-3.7,0-5.2,2.2-5.2,4.1c0,2.6,1.7,3.8,5.4,5.3
				c4.6,1.8,7,4,7,8c0,4.2-3.1,7.9-9.6,7.9c-2.6,0-5.5-0.8-7-1.7L590.4,944.2z"/>
			<path class="st4" d="M624,939.9l-2.8,8.6h-3.7l9.3-27.4h4.3l9.3,27.4h-3.8l-2.9-8.6H624z M633,937.2l-2.7-7.9
				c-0.6-1.8-1-3.4-1.4-5h-0.1c-0.4,1.6-0.9,3.3-1.4,5l-2.7,7.9H633z"/>
			<path class="st4" d="M662.9,947.6c-1.3,0.6-3.9,1.3-7.2,1.3l-0.9,1.6c1.5,0.3,2.8,1.4,2.8,3c0,2.4-2.1,3.3-4.2,3.3
				c-1.1,0-2.2-0.3-2.9-0.7l0.6-1.8c0.6,0.3,1.4,0.5,2.3,0.5c0.9,0,1.7-0.4,1.7-1.2c0-1.1-1.3-1.5-3.2-1.7l1.7-3.1
				c-6.7-0.8-11.5-5.6-11.5-13.7c0-8.6,5.8-14.4,14.3-14.4c3.4,0,5.6,0.7,6.5,1.2l-0.9,2.9c-1.3-0.7-3.2-1.1-5.5-1.1
				c-6.4,0-10.7,4.1-10.7,11.3c0,6.7,3.9,11,10.5,11c2.2,0,4.3-0.4,5.8-1.1L662.9,947.6z"/>
			<path class="st4" d="M689.9,934.6c0,9.4-5.7,14.4-12.7,14.4c-7.2,0-12.3-5.6-12.3-13.9c0-8.7,5.4-14.4,12.7-14.4
				C685.1,920.7,689.9,926.4,689.9,934.6z M668.6,935c0,5.8,3.2,11.1,8.7,11.1c5.6,0,8.8-5.2,8.8-11.4c0-5.4-2.8-11.1-8.7-11.1
				C671.6,923.6,668.6,929,668.6,935z"/>
			<path class="st4" d="M694.5,921.5c1.8-0.4,4.3-0.6,6.8-0.6c3.8,0,6.2,0.7,7.9,2.2c1.4,1.2,2.2,3.1,2.2,5.2c0,3.6-2.3,6-5.2,7v0.1
				c2.1,0.7,3.4,2.7,4,5.5c0.9,3.8,1.5,6.5,2.1,7.5h-3.7c-0.4-0.8-1.1-3.1-1.8-6.5c-0.8-3.8-2.3-5.2-5.5-5.3H698v11.9h-3.5V921.5z
				 M698,934h3.6c3.8,0,6.2-2.1,6.2-5.2c0-3.5-2.6-5.1-6.3-5.1c-1.7,0-2.9,0.2-3.5,0.3V934z"/>
			<path class="st4" d="M730.5,935.7h-10.6v9.9h11.9v3h-15.4v-27.4h14.8v3h-11.2v8.6h10.6V935.7z"/>
			<path class="st4" d="M735.8,944.2c1.6,1,3.9,1.8,6.3,1.8c3.6,0,5.7-1.9,5.7-4.7c0-2.6-1.5-4-5.2-5.4c-4.5-1.6-7.2-3.9-7.2-7.8
				c0-4.3,3.5-7.4,8.9-7.4c2.8,0,4.8,0.6,6.1,1.3l-1,2.9c-0.9-0.5-2.7-1.3-5.2-1.3c-3.7,0-5.2,2.2-5.2,4.1c0,2.6,1.7,3.8,5.4,5.3
				c4.6,1.8,7,4,7,8c0,4.2-3.1,7.9-9.6,7.9c-2.6,0-5.5-0.8-7-1.7L735.8,944.2z"/>
		</g>
	</g>
	<g>
		<g>
			<g id="r4nNEW.tif_3_">
				<g>
					<path class="st4" d="M425.1,978c-0.7,0.7-1.3,0.3-1.8,0.2c-16.8-4.7-33.9-6.2-51.3-6.2c-25.3,0.1-50.3,3.3-75.1,7.7
						c-17.1,3.1-34,6.7-50.7,11c-1.2,0.3-2.5,0.6-3.7,1c-9.1,2.4-18,5.6-27.3,7.6c-16.9,3.6-33.9,5.7-51.3,5.7c-2.3,0-4.6,0-6.8-0.1
						c-8.7-0.7-17.4-1.9-26.1-3.6c-1.6-0.6-3.3-1-4.8-1.4c-13.9-4.4-26.3-10.6-37.2-18.6c-1.9-1.5-3.8-3.1-5.6-4.7c0,0,0,0,0,0
						c-5.3-4.8-10.2-10.1-14.7-15.9c-9.7-12.7-16-26.7-19.3-42c-3.3-15.7-3.1-31.3-1.2-47.1c2-16.4,7-31.8,15.8-45.9
						c9.9-15.9,22.7-29.1,39.8-38c2.8-1.4,5.6-2.7,8.5-3.8c10.1-3.9,20.9-5.8,32-6.1c23.9-0.6,43.7,7.9,59.2,25.7
						c0.8,0.9,1.6,1.8,2.2,2.7c0.6,0.9,0.4,1.6-1,1.5c-1.3-0.2-2.5-0.4-3.7-0.6c-7-1.4-14.1-2.5-21.2-3.1
						c-7.2-0.7-14.5-0.9-21.8-0.5c-12.3,0.7-24.2,3.2-35.7,7.3c-10.3,3.7-19.8,8.8-28.2,15.8c-9.4,7.9-16.1,17.6-20,29.1
						c-5.8,17.2-3.3,33.6,5.9,49.3c5.2,9,11.5,17.1,18.6,24.7c0.8,0.9,1.6,1.7,2.4,2.6c1.5,1.6,3.4,2.7,5.2,3.9
						c0.1,0.1,0.2,0.1,0.3,0.2c3.2,3.3,6,7,8.2,11.1c1.8,3.5,3.5,6.9,4.9,10.6c1.7,4.4,6.3,7.8,13.7,10.1c2.3,0.8,4.7,1.3,7,1.7
						c7.4,1.7,14.8,1.4,21.8-1c0.4-0.1,0.8-0.3,1.2-0.4c16.3-5.4,33.3-7,50.5-7.8c19.4-0.9,38.9-0.6,58.3-0.1
						c10.8,0.3,21.5,1.1,32.2,1.9c1.1,0.1,2.2,0.4,3.3,0.5c0,0.2,0,0.3,0,0.5c-2.6,0.7-5.2,0.4-7.8,0.5c-11.4,0.2-22.5,2.3-33.7,4.3
						c-2.3,0.4-4.5,0.9-6.7,1.3c-11.4,2.3-22.6,5.1-34.1,6.8c-15.6,2.4-31.3,3.6-47.2,3c-0.4,0-0.9-0.2-1.8,0.6
						c3,0.5,5.7,1.1,8.3,1.4c16.6,1.7,33.2,0.8,49.7-1.1c8.6-1,17.1-2.1,25.6-3.4c16-2.5,32-5.4,47.9-8.4
						c17.6-3.2,35.4-4.3,53.3-3.6c14.9,0.5,29.6,2.3,44,6.1c5.9,1.6,11.7,3.4,17.5,5.4C423.4,977,424.2,977.5,425.1,978z"/>
					<path class="st4" d="M244.1,871.9c-0.1,3.4-0.5,6.7-1.8,9.8c-6.3,15.4-14.8,29.5-26.3,41.8c-11.8,12.6-26.5,20.3-44.2,22.3
						c-5.7,0.7-11.5,1.3-17.2-0.2c-5.8-1.6-9.1-4.9-9.7-10.7c-0.4-4.2-2.4-7.3-5.2-9.7c-2.5-3.4-6.1-6.1-10.2-7.5
						c-9.2-4.7-16.2-10.6-20.9-17.9c-1.1-2.2-2-4.4-2.8-6.8c-1-4.6-1.6-8.6-1.8-12.1c0-0.5,0-1,0-1.5c0.3-13.3,7.4-22.9,17.7-30.7
						c6.8-5.2,14.6-8.1,23.4-8.5c0.5,0,1.1-0.1,1.8,0.3c-0.1,0-0.1,0-0.2,0.1c-23,11.3-33.3,28.2-24.8,53.2c1-1.7,0.6-3.6,0.7-5.5
						c0.1-2.5,0.3-4.8,0.8-7.1c1.5-7.4,5-13.9,10.4-19.5c0.4-0.4,0.8-0.8,1.1-1.2c4.2-4,8.7-7.6,14.3-9.8c2.7-1.1,5.5-1.6,8.2-1.7h0
						c3.5-0.1,6.9,0.6,10.4,1.9c6.9,2.6,12.6,7,18.1,11.6c0.1,0.1,0.2,0.2,0.3,0.3c0.1,0.1,0.3,0.3,0.4,0.4c0.1,0.1,0.1,0.3,0.2,0.5
						c-1,0.6-1.8,0-2.6-0.5c-5.1-3-10.3-5.8-16.3-6.7c-5.2-0.8-10.3-0.9-15,1.1c-1,0.4-1.9,0.9-2.8,1.6c-7.9,5.3-12.9,18.9-8.2,27.8
						c2.9,5.4,7.3,9.2,12.9,11.8c0.2,0.1,0.3,0.2,0.5,0.2c0.4,0.2,1,0.4,1.3,0c0.4-0.4-0.1-0.8-0.3-1.2c-2-3.6-3.6-7.3-4.2-11.4
						c-1.1-7.3,0.7-14.1,3.5-20.8c0.4-1,0.9-2,1.3-3c0.2-0.5,0.5-1.1,1.1-1c0.7,0.1,0.4,0.8,0.4,1.3c-0.1,1.3-0.2,2.7-0.2,4
						c-0.1,3-0.2,6-0.1,9c0.1,3.6,0.4,7.2,1.9,10.6c0.7,1.7,1.7,2.8,2.9,3.5c1.5,0.9,3.4,0.9,5.6,0.3c2.7-0.8,5.1-2.2,7.3-3.7
						c4.9-3.3,9.6-6.9,13.4-11.3c7-8.2,7.3-17.5,3.4-27.2c-3.1-7.9-8-14.7-13.8-20.9c-0.7-0.7-1.4-1.4-2-2.1c-1.5-1.7-1.4-2,0.7-2.8
						c6.4-2.6,12.5-2,18.5,1.4c0.3,0.1,0.5,0.3,0.8,0.4c0.2,0.1,0.3,0.2,0.5,0.3c5.4,3.4,9.2,8.2,12.7,13.4
						c3.9,5.9,6.4,12.3,8.8,18.8c0.4,1,0.8,2.1,1.2,3.1c0.7,1.7,1.3,1.9,2.7,0.6c0.4-0.3,0.7-0.7,1.1-1c0.1-0.1,0.3-0.3,0.4-0.4
						c3.2-3.5,5.3-7.6,6-12.3c0.4-2.3,0.5-4.7,0.6-7.1c0.1-0.8,0.1-1.7,0.9-2.5c1.6,2.7,3.2,5.4,4.8,8c1,1.7,1.9,3.5,2.8,5.2
						C242.4,857.2,244.2,864.3,244.1,871.9z"/>
				</g>
			</g>
		</g>
		<g class="st5">
			
				<linearGradient id="SVGID_5_" gradientUnits="userSpaceOnUse" x1="119.4055" y1="-707.324" x2="198.6292" y2="-570.1046" gradientTransform="matrix(0.9806 0.1963 0.1963 -0.9806 129.0566 234.4245)">
				<stop  offset="0" style="stop-color:#009CED"/>
				<stop  offset="0.5188" style="stop-color:#0084ED"/>
				<stop  offset="0.9406" style="stop-color:#0095ED"/>
			</linearGradient>
			<path class="st6" d="M201.7,831c4.3,4.9,7.9,10.5,10.7,16.2c2.3,5.7,4.5,11.6,6.2,17.4c3.3-2.2,6-5,8.2-8.3
				c0.7-1.2,1.4-2.4,1.9-3.6c1.3-4.3,1.9-8.8,1.8-13.4c4.1,5.7,7.6,12,9.9,18.6c0.1,0.8,0.3,1.4,0.6,2.3c2.8,9.6,2.4,18.1-1.2,25.4
				c-17.5,36.1-40.3,55.9-68.1,59.2c-21.7,3.4-32.1-1.4-31.3-14.4c-0.7-1.6-1.7-3-2.9-4.3c-2.7-3.3-6.4-5.9-10.5-7
				c-10.7-4.8-18.6-11.3-23.5-20c-2.7-9.3-3.8-16.3-3.6-21.5c0.2-6.8,2.3-13.2,6.4-18.6c0.2-0.1,0.2-0.3,0.4-0.4
				c9.8-12.6,22.1-18.9,37-19c-13.9,4.8-23.4,13.7-28.3,26.8c-1,2.6-1.5,5.3-1.6,8.1c-0.5,7.8,1.9,17,6.8,27.8
				c-2-6.8-2.4-13.8-1.4-20.8c1.5-8.4,5.8-16.1,12.1-21.9c8.5-7.8,16.7-11.5,24.7-11.1c8.7,0.5,18.3,5.9,29.1,15.9
				c-10-6.7-19.1-10.1-27.5-9.7c-8.8,0.2-15.3,4.5-19.3,12.7c-5,10.4-3.1,19.3,5.7,26.8c3.5,2.9,7.6,5.2,12.1,6.6
				c-9.6-10.4-9.9-23.8-1.1-40c-2.1,16.5-0.9,26.4,3.8,29.2c4.7,3,13-0.7,25.1-10.7c10.9-9.2,12.6-21.4,5.1-36.2
				c-2.6-5-5.8-9.6-9.4-14.1l-5.4-5.7C183.5,819.3,192.7,821.8,201.7,831z"/>
			<g id="aj7hIB_1_">
				<g>
					
						<linearGradient id="SVGID_6_" gradientUnits="userSpaceOnUse" x1="150.0641" y1="-611.2416" x2="224.354" y2="-611.2416" gradientTransform="matrix(0.9806 0.1963 0.1963 -0.9806 129.0566 234.4245)">
						<stop  offset="0.4197" style="stop-color:#00D0ED"/>
						<stop  offset="1" style="stop-color:#00FFED"/>
					</linearGradient>
					<path class="st7" d="M149.1,898.9c13.3,5,31.8,22.8,42.1-1.1c-8.4,13.9-33.6-1.1-36.2-17.5c8,14.5,19.1,5.9,27.2-0.9
						c19.7-16.1,18.7-27.1-4.5-59.1c18-6.8,28.1,7.7,33.8,16.3c7.5,11,9,21.2,12.5,33.5c2.9,10.2,10.2,24.7-12.3,27.4
						c-3.5,0.3-6,5.8-9.1,8.6C182.4,924.1,170.1,923,149.1,898.9z"/>
				</g>
			</g>
			
				<linearGradient id="SVGID_7_" gradientUnits="userSpaceOnUse" x1="42.1555" y1="-639.4633" x2="276.528" y2="-639.4633" gradientTransform="matrix(0.9806 0.1963 0.1963 -0.9806 129.0566 234.4245)">
				<stop  offset="0.4197" style="stop-color:#00D0ED"/>
				<stop  offset="1" style="stop-color:#00FFED"/>
			</linearGradient>
			<path class="st8" d="M236,976.3c-26.4,4.2-49.7,4.7-70.2,2c11.3,5.4,32,7.1,61.9,5.4c7.1-0.5,14.6-1.1,22.6-2
				c-0.1,0.1-0.1,0.1-0.2,0.2c-8.8,9-20.2,14.9-32.5,17.5c-8.9,1.8-17.9,3.2-27,4c-18.3,1.7-36.7,1.4-55-0.9
				c-1.6-0.5-3.3-0.8-4.8-1.1c-26.3-6.7-47.6-20.2-63.8-40.4c-1.7-2.1-3.4-4.4-5-6.6c-6.4-9.4-11.3-19.8-14.4-30.6
				c-4.9-17.6-5.7-37.3-1.7-59.2c3.6-21.5,13.6-41.5,28.9-57.4c9.4-10.1,21-18.1,33.8-23.3c8.5-3.3,17.5-5.4,26.9-6
				c31.1-2.7,55.1,7.8,72.7,30.7l-3.1-0.6c-34.6-8.1-64.9-6.9-90.8,3.8c-0.2,0.1-0.3,0.1-0.6,0.2c-25.7,10.9-40.7,28.1-45.2,51.5
				c-4.1,21.1,6.1,44.2,30.7,69.3c7.3,4.3,13.4,10.2,17.7,17.3c1.9,3.3,3.8,6.7,5.3,10.3c1.9,4.2,6.5,7.4,13.9,9.2
				c8.7,2.3,18,2,26.6-0.8c10.8-3.2,22-4.9,33.3-5.4c16.9-0.8,34.1-0.7,52-0.1c5.8,0.3,11.5,0.1,17.2-0.7c0,0,0.1,0,0.1,0.1h0
				c-3.9,6.1-10.2,10.3-17.3,11.5c-2,0.3-4.1,0.7-6.3,1C240,975.6,238,976.1,236,976.3z"/>
			
				<linearGradient id="SVGID_8_" gradientUnits="userSpaceOnUse" x1="81.8338" y1="-542.7772" x2="81.8338" y2="-748.0482" gradientTransform="matrix(0.9806 0.1963 0.1963 -0.9806 129.0566 234.4245)">
				<stop  offset="0" style="stop-color:#009CED"/>
				<stop  offset="0.5188" style="stop-color:#0084ED"/>
				<stop  offset="0.9406" style="stop-color:#0095ED"/>
			</linearGradient>
			<path class="st9" d="M104.3,992.4c-15.7-7.5-29-18.1-40-31.7c-1.7-2.1-3.4-4.4-5-6.6c-6.4-9.4-11.3-19.8-14.4-30.6
				c-4.9-17.6-5.7-37.3-1.7-59.2c3.6-21.5,13.6-41.5,28.9-57.4c9.4-10.1,21-18.1,33.8-23.3c0,0-46.9,58.6-41,86.2l0,0
				c-0.4,5.6,0.4,11.4,2,17.2C68.3,908.7,68.1,934.5,104.3,992.4z"/>
		</g>
		<g id="xMP44R.tif_2_">
			<path class="st4" d="M243.8,809.8c0,1-0.1,2.2-0.4,3.2c-0.4,1.3-1.4,2.5-2.6,3.4c-1.2,0.9-2.6,1.3-4,1.7
				c-0.9,0.2-1.9,0.2-2.8,0.2c-1.6-0.1-3.1-0.5-4.5-1.4c-0.7-0.4-1.5-1.1-2.1-1.9c-0.5-0.7-0.9-1.6-1.1-2.5c-0.2-1-0.3-2-0.2-3.1
				c0-1,0.3-2,0.7-3.1c0.4-1,1.3-1.9,2.2-2.5c1-0.7,2.4-1.2,3.7-1.5c1-0.2,2.1-0.3,3.1-0.2c1.9,0.1,3.7,0.7,5.2,1.7
				c1.3,1,2.4,2.3,2.7,4C243.6,808.3,243.8,809.1,243.8,809.8z M227.8,810c0,0.7,0,1.5,0.2,2.2c0.2,0.7,0.5,1.3,0.9,1.9
				c0.4,0.4,0.9,0.9,1.5,1.3c1,0.7,2.2,1,3.6,1.1c1,0.1,2.1,0,3.1-0.2c1.3-0.3,2.5-0.9,3.4-1.8c0.6-0.6,0.9-1.2,1.2-2.1
				c0.1-0.7,0.3-1.3,0.3-2c0-1,0-1.9-0.3-2.9c-0.2-0.7-0.5-1.3-1.1-1.9c-0.6-0.6-1.2-1-1.9-1.4c-1-0.4-2.1-0.7-3.1-0.7
				c-0.9,0-1.9,0-2.8,0.3c-1.2,0.3-2.4,0.9-3.2,1.8c-0.6,0.6-0.9,1.2-1,1.9C227.9,808.2,227.8,809.1,227.8,810L227.8,810z"/>
			<path class="st4" d="M239.2,814.8l-0.1,0c-0.4,0-1,0-1.5,0l-0.1,0c-0.6-1.2-1.1-2.3-1.7-3.5c0,0,0-0.1-0.1,0c-0.3,0-0.7,0.2-1,0
				c-0.4,0-1,0-1.5,0c-0.1,0-0.1,0-0.1,0.1c0,1.2,0,2.3,0,3.3c0,0.1,0,0.1-0.1,0.1c-0.4,0-1,0-1.5,0c-0.1,0-0.1,0-0.1-0.1
				c0-2.8-0.1-5.7-0.1-8.4c0-0.7,0.4-1.3,1.2-1.5c0.3,0,0.4-0.2,0.7-0.2c0.7,0,1.3,0,2.1,0c0.7,0,1.6,0.1,2.2,0.6
				c0.7,0.4,1.3,1.1,1.4,2c0.3,1.2-0.3,2.5-1.4,3.1c-0.1,0.1-0.1,0.1-0.1,0.3C237.9,812,238.5,813.3,239.2,814.8
				C239.1,814.6,239.2,814.8,239.2,814.8z M232.9,808c0,0.6,0,1,0,1.6c0,0.1,0,0.1,0.1,0.1c0.6,0,1.2,0,1.8,0c0.4,0,0.7,0,1.2-0.2
				c0.4,0,0.7-0.3,0.9-0.6c0.1-0.3,0.3-0.6,0.3-0.9c0.1-0.7-0.3-1.3-0.9-1.6c-0.3-0.1-0.7-0.3-1-0.3c-0.7,0-1.5,0-2.1,0
				c0,0,0,0-0.1,0s-0.1,0-0.1,0.1C232.9,807,232.9,807.4,232.9,808L232.9,808z"/>
		</g>
	</g>
</g>
<g>
	<g>
		<g>
			<path class="st4" d="M246.8-157.6c-5.1-2.9-9.4-7.1-12.3-12.1c-3.1-5.5-4.6-11.7-4.5-17.9c-0.1-6.3,1.5-12.5,4.5-17.9
				c2.9-5.1,7.2-9.4,12.3-12.2c10.9-5.8,23.9-5.8,34.7,0c5.1,2.9,9.4,7.1,12.2,12.2c3.1,5.5,4.6,11.7,4.5,17.9
				c0.1,6.3-1.4,12.5-4.5,17.9c-2.9,5.1-7.1,9.3-12.2,12.1C270.7-151.8,257.7-151.8,246.8-157.6z M273.1-171.2
				c2.7-1.5,4.9-3.8,6.4-6.5c3.1-6.2,3.2-13.6,0-19.8c-1.5-2.7-3.7-5-6.3-6.5c-5.6-3.1-12.3-3.1-17.9,0c-2.6,1.6-4.9,3.8-6.3,6.5
				c-1.6,3.1-2.4,6.4-2.3,9.8c-0.1,3.4,0.7,6.9,2.3,9.9c1.5,2.7,3.7,5,6.4,6.5c2.7,1.5,5.8,2.3,8.9,2.3
				C267.3-168.9,270.4-169.7,273.1-171.2z"/>
			<path class="st4" d="M304.6-220.7h16.1v27.4l21.9-27.4h19.1l-25.7,32.1l27.4,33.9h-19.1l-23.7-29.3v29.3h-16.1V-220.7z"/>
			<path class="st4" d="M369.9-220.7H415v14.1h-29v12.3h21.3v13.1H386v12.3h29v14.1h-45.1V-220.7z"/>
			<path class="st4" d="M445.1-220.7H461l25.4,66h-16.5l-5.1-13.6h-23.4l-5.1,13.6h-16.6L445.1-220.7z M460.7-181.1l-7.8-22.2
				l-7.8,22.2H460.7z"/>
			<path class="st4" d="M492.6-220.7h15.9l23.4,39.3v-39.3H548v66h-15.9l-23.4-39.4v39.4h-16.1V-220.7z"/>
			<path class="st4" d="M571.2-157.6c-5.1-2.9-9.4-7.1-12.3-12.1c-3.1-5.5-4.6-11.7-4.5-17.9c-0.1-6.3,1.5-12.5,4.5-17.9
				c2.9-5.1,7.2-9.4,12.3-12.2c10.9-5.8,23.9-5.8,34.7,0c5.1,2.9,9.4,7.1,12.2,12.2c3.1,5.5,4.6,11.7,4.5,17.9
				c0.1,6.3-1.4,12.5-4.5,17.9c-2.9,5.1-7.1,9.3-12.2,12.1C595.1-151.8,582.1-151.8,571.2-157.6z M597.4-171.2
				c2.7-1.5,4.9-3.8,6.4-6.5c3.1-6.2,3.2-13.6,0-19.8c-1.5-2.7-3.7-5-6.3-6.5c-5.6-3.1-12.3-3.1-17.9,0c-2.6,1.6-4.9,3.8-6.3,6.5
				c-1.6,3.1-2.4,6.4-2.3,9.8c-0.1,3.4,0.7,6.9,2.3,9.9c1.5,2.7,3.7,5,6.4,6.5c2.7,1.5,5.8,2.3,8.9,2.3
				C591.7-168.9,594.8-169.7,597.4-171.2z"/>
			<path class="st4" d="M634.6-154.4c-3.4-0.6-6.6-1.7-9.7-3.3v-15c3.2,1.7,6.6,3.1,10.3,4c3.3,0.8,6.7,1.3,10.2,1.4
				c2.3,0.1,4.7-0.3,6.7-1.4c1.5-0.8,2.3-2.4,2.3-4.1c0-1.3-0.5-2.5-1.3-3.4c-1-1.1-2.3-2.1-3.5-2.7c-1.6-0.8-4-1.9-7.4-3.4
				c-5.8-2.6-10.2-5.5-12.8-8.6c-4.9-6.3-5.4-15.1-0.9-21.7c2.2-3.1,5.1-5.5,8.5-6.9c4-1.7,8.2-2.5,12.6-2.5c3.4,0,7,0.2,10.4,0.9
				c3.1,0.7,5.9,1.6,8.7,3v14.6c-4.9-2.7-10.5-4.2-16.1-4.3c-2.4-0.1-4.8,0.3-7,1.5c-1.6,0.8-2.6,2.4-2.6,4.2c0,1.8,1,3.5,2.6,4.5
				c3.1,1.8,6.4,3.3,9.7,4.7c3.5,1.4,7,3.2,10.1,5.4c2.3,1.6,4,3.7,5.3,6.2c1.1,2.9,1.7,5.8,1.6,8.9c0,6.1-2.2,10.9-6.4,14.3
				c-4.2,3.4-10.6,5.1-19.2,5.1C642.5-153.3,638.5-153.6,634.6-154.4z"/>
		</g>
		<g>
			<path class="st4" d="M237-139.9v14.8c0,5.6,2.5,8,5.8,8c3.7,0,6.1-2.4,6.1-8v-14.8h3.3v14.6c0,7.7-4,10.8-9.4,10.8
				c-5.1,0-9-2.9-9-10.7v-14.7H237z"/>
			<path class="st4" d="M257.7-114.9v-25h3.5l8,12.6c1.9,2.9,3.3,5.6,4.5,8.1l0.1,0c-0.3-3.3-0.4-6.4-0.4-10.3v-10.4h3v25h-3.3
				l-7.9-12.7c-1.7-2.8-3.4-5.6-4.7-8.3l-0.1,0c0.2,3.1,0.3,6.1,0.3,10.3v10.7H257.7z"/>
			<path class="st4" d="M285.3-139.9v25h-3.2v-25H285.3z"/>
			<path class="st4" d="M296.4-114.9l-8.1-25h3.5l3.9,12.3c1.1,3.4,2,6.4,2.7,9.3h0.1c0.7-2.9,1.7-6,2.9-9.3l4.2-12.3h3.4l-8.9,25
				H296.4z"/>
			<path class="st4" d="M324.5-126.6h-9.7v9h10.8v2.7h-14v-25h13.5v2.7h-10.3v7.9h9.7V-126.6z"/>
			<path class="st4" d="M329.8-139.5c1.6-0.3,4-0.5,6.2-0.5c3.4,0,5.7,0.6,7.2,2c1.3,1.1,2,2.8,2,4.7c0,3.3-2.1,5.5-4.7,6.4v0.1
				c1.9,0.7,3.1,2.4,3.7,5c0.8,3.5,1.4,5.9,1.9,6.9h-3.3c-0.4-0.7-1-2.9-1.7-6c-0.7-3.4-2.1-4.7-5-4.9h-3v10.8h-3.2V-139.5z
				 M333.1-128.2h3.3c3.4,0,5.6-1.9,5.6-4.7c0-3.2-2.3-4.6-5.7-4.7c-1.6,0-2.7,0.1-3.2,0.3V-128.2z"/>
			<path class="st4" d="M349.3-118.8c1.4,0.9,3.6,1.6,5.8,1.6c3.3,0,5.2-1.7,5.2-4.3c0-2.3-1.3-3.7-4.7-5c-4.1-1.4-6.6-3.6-6.6-7.1
				c0-3.9,3.2-6.8,8.1-6.8c2.6,0,4.4,0.6,5.5,1.2l-0.9,2.6c-0.8-0.4-2.5-1.2-4.7-1.2c-3.4,0-4.7,2-4.7,3.7c0,2.3,1.5,3.5,5,4.8
				c4.2,1.6,6.4,3.7,6.4,7.3c0,3.9-2.9,7.2-8.7,7.2c-2.4,0-5-0.7-6.4-1.6L349.3-118.8z"/>
			<path class="st4" d="M371.2-139.9v25H368v-25H371.2z"/>
			<path class="st4" d="M376.9-139.5c2-0.3,4.3-0.5,6.9-0.5c4.6,0,7.9,1.1,10.1,3.1c2.2,2,3.5,4.9,3.5,9c0,4.1-1.3,7.4-3.6,9.7
				c-2.3,2.3-6.2,3.6-11,3.6c-2.3,0-4.2-0.1-5.9-0.3V-139.5z M380.1-117.5c0.8,0.1,2,0.2,3.3,0.2c6.9,0,10.6-3.9,10.6-10.6
				c0-5.9-3.3-9.6-10.1-9.6c-1.7,0-2.9,0.1-3.8,0.3V-117.5z"/>
			<path class="st4" d="M405-122.8l-2.6,7.9h-3.3l8.5-25h3.9l8.5,25h-3.4l-2.7-7.9H405z M413.2-125.3l-2.4-7.2
				c-0.6-1.6-0.9-3.1-1.3-4.6h-0.1c-0.4,1.5-0.8,3-1.3,4.5l-2.4,7.2H413.2z"/>
			<path class="st4" d="M423.7-139.5c2-0.3,4.3-0.5,6.9-0.5c4.6,0,7.9,1.1,10.1,3.1c2.2,2,3.5,4.9,3.5,9c0,4.1-1.3,7.4-3.6,9.7
				c-2.3,2.3-6.2,3.6-11,3.6c-2.3,0-4.2-0.1-5.9-0.3V-139.5z M426.9-117.5c0.8,0.1,2,0.2,3.3,0.2c6.9,0,10.6-3.9,10.6-10.6
				c0-5.9-3.3-9.6-10.1-9.6c-1.7,0-2.9,0.1-3.8,0.3V-117.5z"/>
			<path class="st4" d="M461.3-126.6h-9.7v9h10.8v2.7h-14v-25h13.5v2.7h-10.3v7.9h9.7V-126.6z"/>
			<path class="st4" d="M474.4-139.5c2-0.3,4.3-0.5,6.9-0.5c4.6,0,7.9,1.1,10.1,3.1c2.2,2,3.5,4.9,3.5,9c0,4.1-1.3,7.4-3.6,9.7
				c-2.3,2.3-6.2,3.6-11,3.6c-2.3,0-4.2-0.1-5.9-0.3V-139.5z M477.6-117.5c0.8,0.1,2,0.2,3.3,0.2c6.9,0,10.6-3.9,10.6-10.6
				c0-5.9-3.3-9.6-10.1-9.6c-1.7,0-2.9,0.1-3.8,0.3V-117.5z"/>
			<path class="st4" d="M520.4-127.6c0,8.6-5.2,13.1-11.6,13.1c-6.6,0-11.2-5.1-11.2-12.7c0-7.9,4.9-13.1,11.6-13.1
				C516-140.3,520.4-135.1,520.4-127.6z M501-127.2c0,5.3,2.9,10.1,8,10.1c5.1,0,8-4.7,8-10.4c0-5-2.6-10.1-8-10.1
				C503.7-137.6,501-132.7,501-127.2z"/>
			<path class="st4" d="M524.1-118.8c1.4,0.9,3.6,1.6,5.8,1.6c3.3,0,5.2-1.7,5.2-4.3c0-2.3-1.3-3.7-4.7-5c-4.1-1.4-6.6-3.6-6.6-7.1
				c0-3.9,3.2-6.8,8.1-6.8c2.6,0,4.4,0.6,5.5,1.2l-0.9,2.6c-0.8-0.4-2.5-1.2-4.7-1.2c-3.4,0-4.7,2-4.7,3.7c0,2.3,1.5,3.5,5,4.8
				c4.2,1.6,6.4,3.7,6.4,7.3c0,3.9-2.9,7.2-8.7,7.2c-2.4,0-5-0.7-6.4-1.6L524.1-118.8z"/>
			<path class="st4" d="M554.7-122.8l-2.6,7.9h-3.3l8.5-25h3.9l8.5,25h-3.4l-2.7-7.9H554.7z M562.9-125.3l-2.4-7.2
				c-0.6-1.6-0.9-3.1-1.3-4.6h-0.1c-0.4,1.5-0.8,3-1.3,4.5l-2.4,7.2H562.9z"/>
			<path class="st4" d="M590.2-115.7c-1.2,0.6-3.5,1.2-6.6,1.2l-0.9,1.5c1.4,0.3,2.6,1.3,2.6,2.8c0,2.1-1.9,3-3.8,3
				c-1,0-2-0.3-2.6-0.6l0.5-1.7c0.6,0.3,1.3,0.5,2.1,0.5c0.9,0,1.6-0.3,1.6-1.1c0-1-1.1-1.4-2.9-1.6l1.6-2.9
				c-6.1-0.7-10.5-5.1-10.5-12.5c0-7.8,5.3-13.1,13-13.1c3.1,0,5.1,0.7,5.9,1.1l-0.8,2.6c-1.2-0.6-3-1-5-1c-5.9,0-9.7,3.7-9.7,10.3
				c0,6.1,3.5,10,9.6,10c2,0,4-0.4,5.3-1L590.2-115.7z"/>
			<path class="st4" d="M614.8-127.6c0,8.6-5.2,13.1-11.6,13.1c-6.6,0-11.2-5.1-11.2-12.7c0-7.9,4.9-13.1,11.6-13.1
				C610.4-140.3,614.8-135.1,614.8-127.6z M595.5-127.2c0,5.3,2.9,10.1,8,10.1c5.1,0,8-4.7,8-10.4c0-5-2.6-10.1-8-10.1
				C598.1-137.6,595.5-132.7,595.5-127.2z"/>
			<path class="st4" d="M619-139.5c1.6-0.3,4-0.5,6.2-0.5c3.4,0,5.7,0.6,7.2,2c1.3,1.1,2,2.8,2,4.7c0,3.3-2.1,5.5-4.7,6.4v0.1
				c1.9,0.7,3.1,2.4,3.7,5c0.8,3.5,1.4,5.9,1.9,6.9h-3.3c-0.4-0.7-1-2.9-1.7-6c-0.7-3.4-2.1-4.7-5-4.9h-3v10.8H619V-139.5z
				 M622.2-128.2h3.3c3.4,0,5.6-1.9,5.6-4.7c0-3.2-2.3-4.6-5.7-4.7c-1.6,0-2.7,0.1-3.2,0.3V-128.2z"/>
			<path class="st4" d="M651.9-126.6h-9.7v9H653v2.7h-14v-25h13.5v2.7h-10.3v7.9h9.7V-126.6z"/>
			<path class="st4" d="M656.7-118.8c1.4,0.9,3.6,1.6,5.8,1.6c3.3,0,5.2-1.7,5.2-4.3c0-2.3-1.3-3.7-4.7-5c-4.1-1.4-6.6-3.6-6.6-7.1
				c0-3.9,3.2-6.8,8.1-6.8c2.6,0,4.4,0.6,5.5,1.2l-0.9,2.6c-0.8-0.4-2.5-1.2-4.7-1.2c-3.4,0-4.7,2-4.7,3.7c0,2.3,1.5,3.5,5,4.8
				c4.2,1.6,6.4,3.7,6.4,7.3c0,3.9-2.9,7.2-8.7,7.2c-2.4,0-5-0.7-6.4-1.6L656.7-118.8z"/>
		</g>
	</g>
	<g>
		<g>
			<g id="r4nNEW.tif_4_">
				<g>
					<path class="st4" d="M370.3-81.5c-0.7,0.6-1.2,0.2-1.7,0.1c-15.1-4.8-30.7-6.8-46.5-7.4c-23.1-0.8-45.9,1.2-68.7,4.5
						c-15.6,2.2-31.2,4.9-46.6,8.3c-1.1,0.2-2.3,0.5-3.4,0.7c-8.4,1.9-16.6,4.5-25.1,6c-15.5,2.7-31.1,4-46.9,3.4
						c-2.1-0.1-4.2-0.2-6.2-0.3c-7.9-1-15.8-2.4-23.7-4.1c-1.4-0.6-3-1-4.3-1.4C84.5-76.3,73.4-82.4,63.8-90c-1.7-1.4-3.4-2.9-5-4.5
						c0,0,0,0,0,0c-4.7-4.5-9-9.5-12.8-15c-8.4-11.9-13.7-24.9-16.1-39c-2.5-14.4-1.8-28.7,0.5-42.9c2.4-14.9,7.5-28.7,16-41.2
						c9.6-14.2,21.7-25.8,37.6-33.3c2.6-1.2,5.2-2.3,7.9-3.2c9.4-3.2,19.2-4.6,29.4-4.4c21.8,0.3,39.6,8.7,53.1,25.5
						c0.7,0.8,1.4,1.7,1.9,2.6c0.5,0.9,0.3,1.5-1,1.3c-1.1-0.2-2.3-0.4-3.4-0.7c-6.4-1.5-12.8-2.8-19.2-3.6
						c-6.6-0.9-13.2-1.3-19.8-1.2c-11.2,0.2-22.1,2.1-32.7,5.4c-9.5,3-18.4,7.4-26.2,13.4c-8.9,6.9-15.3,15.5-19.2,25.9
						c-5.9,15.5-4.1,30.5,3.6,45.2c4.4,8.3,9.9,15.9,16.1,23.1c0.7,0.8,1.4,1.6,2.1,2.4c1.3,1.5,3,2.6,4.6,3.7
						c0.1,0.1,0.2,0.1,0.3,0.2c2.8,3.1,5.2,6.6,7.1,10.4c1.5,3.2,3,6.4,4.1,9.8c1.4,4,5.5,7.3,12.1,9.6c2.1,0.8,4.2,1.4,6.4,1.8
						c6.7,1.8,13.4,1.8,19.9-0.1c0.4-0.1,0.7-0.2,1.1-0.3c15.1-4.3,30.6-5.2,46.2-5.3c17.7-0.1,35.5,0.8,53.2,1.9
						c9.8,0.6,19.6,1.7,29.3,2.8c1,0.1,2,0.4,3,0.6c0,0.1,0,0.3,0,0.4c-2.4,0.6-4.8,0.2-7.1,0.2c-10.4-0.2-20.6,1.3-30.8,2.8
						c-2.1,0.3-4.1,0.6-6.2,1c-10.4,1.7-20.8,3.9-31.3,5.1c-14.3,1.6-28.7,2.2-43.1,1.1c-0.4,0-0.8-0.2-1.6,0.5
						c2.7,0.6,5.1,1.2,7.5,1.6c15.1,2.1,30.2,1.8,45.3,0.7c7.9-0.6,15.7-1.4,23.5-2.3c14.7-1.7,29.3-3.9,44-6
						c16.1-2.3,32.4-2.7,48.7-1.4c13.5,1,26.9,3.1,39.9,7.1c5.3,1.6,10.6,3.5,15.8,5.5C368.8-82.5,369.5-81.9,370.3-81.5z"/>
					<path class="st4" d="M209-184.4c-0.2,3.1-0.7,6.1-2,8.9c-6.3,13.8-14.5,26.4-25.4,37.2c-11.2,11.1-24.8,17.6-41,18.8
						c-5.3,0.4-10.5,0.8-15.7-0.8c-5.2-1.6-8.1-4.8-8.5-10.1c-0.3-3.9-1.9-6.8-4.4-9c-2.2-3.2-5.4-5.8-9.1-7.2
						c-8.2-4.6-14.4-10.2-18.4-17c-1-2-1.7-4.1-2.3-6.3c-0.7-4.3-1.1-7.9-1.2-11.1c0-0.4,0-0.9,0.1-1.3c0.7-12.1,7.5-20.6,17.1-27.4
						c6.4-4.5,13.6-6.9,21.6-7c0.5,0,1-0.1,1.7,0.4c0,0-0.1,0-0.1,0.1c-21.4,9.5-31.3,24.5-24.5,47.6c1-1.5,0.7-3.3,0.8-5
						c0.1-2.2,0.4-4.4,0.9-6.5c1.6-6.7,5-12.5,10.2-17.4c0.4-0.3,0.7-0.7,1.1-1c3.9-3.5,8.2-6.6,13.4-8.4c2.5-0.9,5.1-1.3,7.6-1.2
						l0,0c3.2,0,6.3,0.8,9.4,2.1c6.2,2.6,11.2,6.8,16.1,11.2c0.1,0.1,0.2,0.2,0.3,0.3c0.1,0.1,0.2,0.3,0.3,0.4
						c0.1,0.1,0.1,0.3,0.1,0.5c-1,0.5-1.6-0.1-2.3-0.5c-4.5-2.9-9.2-5.6-14.6-6.6c-4.7-0.9-9.3-1.2-13.7,0.5
						c-0.9,0.4-1.8,0.8-2.6,1.3c-7.4,4.6-12.4,16.8-8.4,25c2.4,5,6.3,8.6,11.3,11.2c0.2,0.1,0.3,0.2,0.5,0.2
						c0.4,0.2,0.9,0.4,1.2,0.1c0.3-0.4-0.1-0.8-0.3-1.1c-1.7-3.4-3-6.8-3.4-10.5c-0.7-6.7,1.2-12.8,3.9-18.8
						c0.4-0.9,0.8-1.8,1.3-2.7c0.2-0.4,0.4-1,1-0.9c0.6,0.2,0.4,0.8,0.3,1.2c-0.1,1.2-0.2,2.4-0.3,3.7c-0.2,2.7-0.4,5.5-0.4,8.2
						c0,3.3,0.1,6.6,1.4,9.7c0.6,1.5,1.5,2.6,2.6,3.3c1.4,0.8,3.1,1,5.1,0.5c2.5-0.6,4.7-1.8,6.8-3.1c4.5-2.9,9-6,12.6-9.9
						c6.7-7.2,7.2-15.7,4-24.6c-2.6-7.3-6.8-13.6-11.9-19.5c-0.6-0.7-1.2-1.3-1.8-2c-1.3-1.6-1.2-1.8,0.7-2.5
						c5.9-2.1,11.5-1.4,16.8,1.9c0.2,0.1,0.5,0.3,0.7,0.4c0.1,0.1,0.3,0.2,0.4,0.3c4.8,3.3,8.1,7.8,11.1,12.7
						c3.3,5.5,5.4,11.4,7.3,17.4c0.3,1,0.6,1.9,1,2.8c0.6,1.6,1.2,1.7,2.4,0.7c0.3-0.3,0.7-0.6,1-0.9c0.1-0.1,0.3-0.2,0.4-0.4
						c3.1-3.1,5.1-6.7,5.9-11c0.4-2.1,0.6-4.3,0.8-6.4c0.1-0.8,0.1-1.5,0.9-2.2c1.4,2.5,2.8,5,4.1,7.5c0.9,1.6,1.7,3.2,2.4,4.9
						C207.9-197.8,209.4-191.3,209-184.4z"/>
				</g>
			</g>
		</g>
		<g class="st5">
			
				<linearGradient id="SVGID_9_" gradientUnits="userSpaceOnUse" x1="-105.6527" y1="332.5374" x2="-33.4107" y2="457.6641" gradientTransform="matrix(0.9849 0.1876 0.1864 -0.9789 130.3277 232.1202)">
				<stop  offset="0" style="stop-color:#009CED"/>
				<stop  offset="0.5188" style="stop-color:#0084ED"/>
				<stop  offset="0.9406" style="stop-color:#0095ED"/>
			</linearGradient>
			<path class="st10" d="M173.4-223.4c4,4.4,7.3,9.5,9.9,14.7c2.2,5.1,4.2,10.5,5.8,15.8c3-2,5.4-4.6,7.4-7.6
				c0.6-1.1,1.2-2.2,1.7-3.3c1.2-3.9,1.7-8,1.5-12.2c3.8,5.2,7,10.9,9.2,16.8c0.1,0.7,0.3,1.3,0.6,2.1c2.6,8.7,2.4,16.5-0.8,23.1
				C193-141,172.3-122.9,147-119.7c-19.8,3.2-29.3-1-28.7-12.9c-0.7-1.5-1.6-2.7-2.7-3.9c-2.5-3-5.9-5.3-9.7-6.3
				c-9.8-4.3-17.1-10.1-21.7-18c-2.5-8.4-3.7-14.8-3.5-19.5c0.1-6.2,2-12,5.7-16.9c0.2-0.1,0.2-0.2,0.3-0.3
				c8.8-11.5,20-17.3,33.7-17.5c-12.7,4.4-21.3,12.6-25.6,24.6c-0.9,2.4-1.3,4.9-1.4,7.4c-0.4,7.1,1.9,15.4,6.5,25.2
				c-1.9-6.1-2.3-12.5-1.5-18.9c1.3-7.7,5.1-14.6,10.8-20c7.7-7.1,15.1-10.6,22.5-10.2c7.9,0.4,16.8,5.2,26.8,14.3
				c-9.2-6.1-17.6-9-25.3-8.6c-8,0.2-13.9,4.2-17.5,11.7c-4.4,9.5-2.6,17.5,5.4,24.3c3.2,2.6,7,4.7,11.1,5.9
				c-8.8-9.4-9.3-21.5-1.4-36.3c-1.8,15-0.6,24,3.8,26.6c4.3,2.7,11.9-0.7,22.8-9.9c9.9-8.5,11.3-19.5,4.3-32.9
				c-2.5-4.5-5.4-8.7-8.7-12.7l-5-5.1C156.6-233.8,165-231.7,173.4-223.4z"/>
			<g id="aj7hIB_3_">
				<g>
					
						<linearGradient id="SVGID_10_" gradientUnits="userSpaceOnUse" x1="-77.696" y1="420.1523" x2="-9.953" y2="420.1523" gradientTransform="matrix(0.9849 0.1876 0.1864 -0.9789 130.3277 232.1202)">
						<stop  offset="0.4197" style="stop-color:#00D0ED"/>
						<stop  offset="1" style="stop-color:#00FFED"/>
					</linearGradient>
					<path class="st11" d="M125.9-161.2c12.2,4.5,29.3,20.5,38.4-1.3c-7.5,12.7-30.7-0.7-33.3-15.6c7.4,13.1,17.5,5.2,24.9-1
						c17.8-14.8,16.9-24.8-4.7-53.6c16.4-6.3,25.7,6.8,31,14.5c6.9,9.9,8.5,19.2,11.7,30.4c2.8,9.3,9.5,22.4-11,25
						c-3.2,0.3-5.4,5.3-8.3,7.8C156.6-138.6,145.4-139.5,125.9-161.2z"/>
				</g>
			</g>
			<linearGradient id="SVGID_11_" gradientUnits="userSpaceOnUse" x1="29.3518" y1="-168.7161" x2="212.95" y2="-168.7161">
				<stop  offset="0.4197" style="stop-color:#00D0ED"/>
				<stop  offset="1" style="stop-color:#00FFED"/>
			</linearGradient>
			<path class="st12" d="M213-81.1c-6.8,5.2-14.8,8.8-23.3,10.6c-8.1,1.7-16.4,3-24.6,3.8c-16.7,1.7-33.5,1.6-50.2-0.4
				c-1.4-0.4-3-0.7-4.4-1c-24.1-5.9-43.7-18-58.7-36.2c-1.6-1.9-3.1-4-4.6-6c-6-8.5-10.5-17.9-13.5-27.7c-4.7-16-5.5-33.9-2.2-53.8
				c3-19.6,12-37.8,25.8-52.4c8.5-9.3,19-16.6,30.7-21.5c7.8-3.1,16-5,24.5-5.7c28.4-2.7,50.4,6.7,66.8,27.4l-2.8-0.5
				c-31.7-7.1-59.4-5.8-82.9,4.1c-0.2,0.1-0.3,0.1-0.6,0.2c-23.4,10.1-36.9,25.8-40.8,47.1c-1.8,10,1.1,49.4,24.7,54.6
				c25.8,5.7,22.1,43.3,29.9,51.3C126.3-67,188.7-76.5,213-81.1z"/>
			
				<linearGradient id="SVGID_12_" gradientUnits="userSpaceOnUse" x1="-139.9133" y1="482.5833" x2="-139.9133" y2="295.402" gradientTransform="matrix(0.9849 0.1876 0.1864 -0.9789 130.3277 232.1202)">
				<stop  offset="0" style="stop-color:#009CED"/>
				<stop  offset="0.5188" style="stop-color:#0084ED"/>
				<stop  offset="0.9406" style="stop-color:#0095ED"/>
			</linearGradient>
			<path class="st13" d="M85.9-76C71.4-82.6,59.2-92.2,49-104.5c-1.6-1.9-3.1-4-4.6-6c-6-8.5-10.5-17.9-13.5-27.7
				c-4.7-16-5.5-33.9-2.2-53.8c3-19.6,12-37.8,25.8-52.4c8.5-9.3,19-16.6,30.7-21.5c0,0-42.3,53.6-36.6,78.6l0,0
				c-0.3,5.1,0.5,10.3,2,15.6C52.2-151.7,52.3-128.3,85.9-76z"/>
		</g>
		<g id="xMP44R.tif_3_">
			<path class="st4" d="M210.8-241c0,0.9-0.2,2-0.5,2.9c-0.4,1.2-1.4,2.2-2.5,3c-1.1,0.8-2.5,1.1-3.7,1.4c-0.8,0.1-1.8,0.1-2.6,0.1
				c-1.5-0.2-2.8-0.6-4-1.4c-0.7-0.4-1.3-1.1-1.8-1.8c-0.4-0.7-0.8-1.5-0.9-2.3c-0.1-0.9-0.2-1.9-0.1-2.8c0-0.9,0.3-1.8,0.7-2.8
				s1.3-1.7,2.1-2.2c1-0.6,2.2-1,3.4-1.2c0.9-0.1,1.9-0.2,2.8-0.1c1.8,0.2,3.4,0.7,4.7,1.7c1.2,1,2.1,2.2,2.3,3.8
				C210.7-242.3,210.8-241.7,210.8-241z M196.2-241.4c0,0.7,0,1.3,0.1,2c0.1,0.7,0.4,1.2,0.8,1.7c0.4,0.4,0.8,0.8,1.3,1.2
				c0.9,0.7,2,1,3.2,1.1c0.9,0.2,1.9,0,2.8-0.1c1.2-0.2,2.3-0.7,3.1-1.5c0.6-0.5,0.8-1,1.1-1.8c0.2-0.7,0.3-1.2,0.3-1.8
				c0-0.9,0-1.7-0.2-2.7c-0.1-0.7-0.4-1.2-0.9-1.7s-1.1-1-1.7-1.4c-0.9-0.4-1.9-0.7-2.8-0.7c-0.8,0-1.8,0-2.6,0.2
				c-1.1,0.2-2.2,0.7-3,1.5c-0.6,0.5-0.8,1-1,1.7C196.4-243,196.2-242.2,196.2-241.4L196.2-241.4z"/>
			<path class="st4" d="M206.5-236.6l-0.1,0c-0.4,0-0.9,0-1.4,0l-0.1,0c-0.5-1.1-0.9-2.1-1.4-3.2c0,0,0-0.1-0.1,0
				c-0.3,0-0.7,0.1-0.9,0c-0.4,0-0.9,0-1.4,0c-0.1,0-0.1,0-0.1,0.1c0,1.1-0.1,2.1-0.1,3.1c0,0.1,0,0.1-0.1,0.1c-0.4,0-0.9,0-1.4,0
				c-0.1,0-0.1,0-0.1-0.1c0.1-2.5,0.1-5.2,0.2-7.7c0-0.7,0.4-1.2,1.1-1.3c0.3,0,0.4-0.1,0.7-0.1c0.7,0,1.2,0,1.9,0s1.5,0.2,2,0.6
				c0.7,0.4,1.2,1.1,1.2,1.9c0.2,1.1-0.3,2.2-1.4,2.8c-0.1,0.1-0.1,0.1-0.1,0.3C205.4-239.1,205.9-237.9,206.5-236.6
				C206.4-236.7,206.5-236.6,206.5-236.6z M201-243c0,0.5,0,0.9,0,1.5c0,0.1,0,0.1,0.1,0.1c0.5,0,1.1,0,1.6,0c0.4,0,0.7,0,1.1-0.1
				c0.4,0,0.7-0.2,0.8-0.5s0.3-0.5,0.3-0.8c0.2-0.7-0.2-1.2-0.8-1.5c-0.3-0.1-0.7-0.3-0.9-0.3c-0.7,0-1.4,0-1.9,0c0,0,0,0-0.1,0
				c-0.1,0-0.1,0-0.1,0.1C201-243.9,201-243.5,201-243L201-243z"/>
		</g>
	</g>
</g>
</svg>
